<!DOCTYPE svg PUBLIC "-//W3C//DTD SVG 1.1//EN" "http://www.w3.org/Graphics/SVG/1.1/DTD/svg11.dtd">
<!-- Uploaded to: SVG Repo, www.svgrepo.com, Transformed by: SVG Repo Mixer Tools -->
<svg width="93px" height="93px" viewBox="-4.8 -4.8 57.60 57.60" xmlns="http://www.w3.org/2000/svg" fill="#000000" transform="rotate(0)">
<g id="SVGRepo_bgCarrier" stroke-width="0" transform="translate(0,0), scale(1)">
<rect x="-4.8" y="-4.8" width="57.60" height="57.60" rx="28.8" fill="#F4F0EC" strokewidth="0"/>
</g>
<g id="SVGRepo_tracerCarrier" stroke-linecap="round" stroke-linejoin="round" stroke="#CCCCCC" stroke-width="1.152">
<defs>
<style>.a{fill:none;stroke:#000000;stroke-linecap:round;stroke-linejoin:round;}</style>
</defs>
<path class="a" d="M24,5.46c.71,0,1.42.66,2.82,2.29l6.51,6.5V10.57h4v7.69l6.16,6.16-2.83,2.83L24,10.57,7.33,27.25,4.5,24.42,21.17,7.75C22.59,6.33,23.31,5.52,24,5.46ZM37.35,23.92V41.2A1.33,1.33,0,0,1,36,42.54H12a1.33,1.33,0,0,1-1.33-1.34V23.9"/>
<line class="a" x1="33.34" y1="14.25" x2="37.34" y2="18.26"/>
</g>
<g id="SVGRepo_iconCarrier">
<defs>
<style>.a{fill:none;stroke:#000000;stroke-linecap:round;stroke-linejoin:round;}</style>
</defs>
<path class="a" d="M24,5.46c.71,0,1.42.66,2.82,2.29l6.51,6.5V10.57h4v7.69l6.16,6.16-2.83,2.83L24,10.57,7.33,27.25,4.5,24.42,21.17,7.75C22.59,6.33,23.31,5.52,24,5.46ZM37.35,23.92V41.2A1.33,1.33,0,0,1,36,42.54H12a1.33,1.33,0,0,1-1.33-1.34V23.9"/>
<line class="a" x1="33.34" y1="14.25" x2="37.34" y2="18.26"/>
</g>
</svg>