<svg xmlns="http://www.w3.org/2000/svg" viewBox="0 0 69.28 78.39"><defs><style>.cls-1{fill:#fff;}.cls-2{fill:#dbecf6;}.cls-3{fill:none;stroke:#8b1451;stroke-linecap:round;stroke-linejoin:round;}</style></defs><title>img1</title><g id="Слой_2" data-name="Слой 2"><g id="Capa_1" data-name="Capa 1"><path class="cls-1" d="M42.31,55.28h.43c.26,0,.52,0,.78,0,9.64.64,8.39,19.37,8.39,19.37.43,4.7,4.45,2.88,4.45,2.88,9.64-6.9,7.2-30.23,7.2-30.23,7.2-10.56,2.88-22.55,2.88-22.55-1.93-5-5.67-8.74-11.17-9.19-4.72-.38-8.6,3.39-13.08,3.64-4.47-.25-8.36-4-13.07-3.64-5.5.45-9.24,4.17-11.17,9.19,0,0-4.32,12,2.88,22.56,0,0-2.44,23.33,7.2,30.23,0,0,4,1.82,4.45-2.88,0,0-1.25-18.73,8.39-19.37C41.34,55.26,41.83,55.27,42.31,55.28Z"/><path class="cls-2" d="M36.47,57.36c-.18.08-.35.17-.52.27-2.76,1.63-3.13,4.49-3.84,7.35-.4,1.61-1.78,7.38-4.46,4.76-1.56-1.53-2-4-2.28-6.1a62.73,62.73,0,0,1-.72-6.84c-.19-4.74.53-9.73,4.2-13-.88-.61-1.9-1-2.72-1.67a6.9,6.9,0,0,1-2-2.86A20.23,20.23,0,0,1,22.47,31c.16-4.14,1.52-8.66,5.89-10s8.23.36,12.23,1.7c2.59.86,5.46,1.63,8.21,1.16,1.91-.33,4-1.2,4.17-3.3-1.81.95-4.22.83-6.15.49a10.43,10.43,0,0,1-4.66-1.8c-4.46-.27-8.34-4-13-3.64-5.5.45-9.24,4.17-11.17,9.19,0,0-4.32,12,2.88,22.56,0,0-2.44,23.33,7.2,30.23,0,0,4,1.82,4.45-2.88C32.47,74.67,31.65,62.37,36.47,57.36Z"/><path class="cls-2" d="M67.42,37.27a8.71,8.71,0,0,1-.38.82,13.15,13.15,0,0,1-4.67,4.82,45.11,45.11,0,0,1-4.23,2.3l-1,.49c-.32.16,0,.27.24.61a14.74,14.74,0,0,1,1.17,2A23.24,23.24,0,0,1,60.41,57c.16,3.18.43,6.54-.21,9.67a16.69,16.69,0,0,1-1.46,4.26A5.42,5.42,0,0,1,57,73.16a2.07,2.07,0,0,1-2.37.11,3.53,3.53,0,0,1-.87-2.41c-.26-2-.65-4.12-1.12-6.13A13.14,13.14,0,0,0,50.23,59a5.6,5.6,0,0,0-2.32-1.61c4.81,5,4,17.29,4,17.29.43,4.7,4.45,2.88,4.45,2.88,9.64-6.9,7.2-30.23,7.2-30.23A23.81,23.81,0,0,0,67.42,37.27Z"/><path class="cls-3" d="M42.31,55.28h.43c.26,0,.52,0,.78,0,9.64.64,8.39,19.37,8.39,19.37.43,4.7,4.45,2.88,4.45,2.88,9.64-6.9,7.2-30.23,7.2-30.23,7.2-10.56,2.88-22.55,2.88-22.55-1.93-5-5.67-8.74-11.17-9.19-4.72-.38-8.6,3.39-13.08,3.64-4.47-.25-8.36-4-13.07-3.64-5.5.45-9.24,4.17-11.17,9.19,0,0-4.32,12,2.88,22.56,0,0-2.44,23.33,7.2,30.23,0,0,4,1.82,4.45-2.88,0,0-1.25-18.73,8.39-19.37C41.34,55.26,41.83,55.27,42.31,55.28Z"/><path class="cls-3" d="M39.45,18.67s11.46,4.07,13.48,1.27"/><path class="cls-1" d="M69.28,9.33c-8.1.68-8.65,1.23-9.33,9.33-.68-8.1-1.23-8.65-9.33-9.33,8.1-.68,8.65-1.24,9.33-9.33C60.63,8.1,61.18,8.65,69.28,9.33Z"/><path class="cls-1" d="M18.67,47.25c-8.1.68-8.65,1.23-9.33,9.33C8.65,48.48,8.1,47.93,0,47.25c8.1-.68,8.65-1.23,9.33-9.33C10,46,10.57,46.57,18.67,47.25Z"/></g></g></svg>