<svg xmlns="http://www.w3.org/2000/svg" viewBox="0 0 65.62 79.91"><defs><style>.cls-1{fill:#f5efe4;}.cls-2{fill:#f1c79c;}.cls-3{fill:none;stroke:#8b1451;stroke-linecap:round;stroke-linejoin:round;}</style></defs><title>img7</title><g id="Слой_2" data-name="Слой 2"><g id="Capa_1" data-name="Capa 1"><path class="cls-1" d="M33,50.78h.54c.33,0,.66,0,1,0,12.2.81,10.62,24.51,10.62,24.51.54,6,5.63,3.65,5.63,3.65,12.2-8.73,9.11-38.26,9.11-38.26C69,27.34,63.49,12.16,63.49,12.16,61,5.81,56.31,1.1,49.36.53c-6-.49-10.89,4.29-16.55,4.61C27.15,4.82,22.23,0,16.26.53,9.3,1.1,4.57,5.81,2.13,12.16c0,0-5.47,15.18,3.64,28.55,0,0-3.09,29.53,9.11,38.26,0,0,5.08,2.3,5.63-3.65,0,0-1.58-23.71,10.62-24.51C31.74,50.77,32.35,50.78,33,50.78Z"/><path class="cls-2" d="M25.36,53.43c-.22.11-.44.22-.65.35-3.46,2.06-3.93,5.68-4.82,9.3-.5,2-2.24,9.33-5.59,6-2-1.94-2.47-5.11-2.86-7.73a80.47,80.47,0,0,1-.9-8.65c-.24-6,.67-12.31,5.27-16.51-1.11-.77-2.38-1.26-3.42-2.12a8.72,8.72,0,0,1-2.52-3.63A25.79,25.79,0,0,1,7.79,20.06c.2-5.25,1.9-11,7.39-12.7s10.33.46,15.35,2.15c3.24,1.09,6.85,2.07,10.3,1.46,2.4-.42,5-1.52,5.23-4.18-2.28,1.2-5.29,1.06-7.72.62a13,13,0,0,1-5.85-2.28C26.9,4.8,22,0,16.12.53c-6.9.57-11.59,5.28-14,11.63,0,0-5.42,15.18,3.61,28.55,0,0-3.07,29.53,9,38.26,0,0,5,2.3,5.58-3.65C20.34,75.32,19.32,59.76,25.36,53.43Z"/><path class="cls-2" d="M64.75,28a11.19,11.19,0,0,1-.49,1,16.62,16.62,0,0,1-5.91,6.11A56.34,56.34,0,0,1,53,38l-1.26.62c-.41.2,0,.34.3.78A18.64,18.64,0,0,1,53.53,42a29.42,29.42,0,0,1,2.35,10.92c.2,4,.55,8.27-.27,12.24a21.1,21.1,0,0,1-1.84,5.39,6.87,6.87,0,0,1-2.16,2.86c-.85.52-2.15.89-3,.14s-1-1.94-1.1-3c-.33-2.59-.83-5.22-1.41-7.76S44.73,57.47,43,55.47a7.07,7.07,0,0,0-2.94-2c6.09,6.34,5.05,21.89,5.05,21.89.54,6,5.63,3.65,5.63,3.65,12.2-8.73,9.11-38.26,9.11-38.26A30.15,30.15,0,0,0,64.75,28Z"/><path class="cls-2" d="M3.45,20.88C6.21,20,8.77,22.44,8.67,27,8.6,30,9,31,9.86,34S16,40.51,19.94,40.14c2.73-.25,4.24-3.41,6.89-3.48,1.81,0,3.19,1.26,4.23,2.62,1.73,2.28,2.9,5.3,5.16,7.12a3.78,3.78,0,0,0,4.6.29c2.34-1.43,1.89-3.93,2-6.29a6.54,6.54,0,0,1,1.83-4.48c.42-.49,1.21-1.48,2-1.18,1.15.42,1.74,1.45,3.12,1.46A14.61,14.61,0,0,0,55.92,35c2.56-1.28,2.33-3.95,2.66-6.42a18.11,18.11,0,0,1,1.26-4.91c.46-1,.87-2.67,1.78-3.45a13.47,13.47,0,0,1,3.16-2,31.52,31.52,0,0,0-1.33-6.11C61,5.82,56.28,1.12,49.33.55c-6-.49-10.88,4.29-16.54,4.61C27.13,4.84,22.22.06,16.25.55,9.3,1.12,4.57,5.82,2.13,12.17a34.44,34.44,0,0,0-1.6,9.43A10.34,10.34,0,0,0,3.45,20.88Z"/><path class="cls-3" d="M33,50.78h.54c.33,0,.66,0,1,0,12.2.81,10.62,24.51,10.62,24.51.54,6,5.63,3.65,5.63,3.65,12.2-8.73,9.11-38.26,9.11-38.26C69,27.34,63.49,12.16,63.49,12.16,61,5.81,56.31,1.1,49.36.53c-6-.49-10.89,4.29-16.55,4.61C27.15,4.82,22.23,0,16.26.53,9.3,1.1,4.57,5.81,2.13,12.16c0,0-5.47,15.18,3.64,28.55,0,0-3.09,29.53,9.11,38.26,0,0,5.08,2.3,5.63-3.65,0,0-1.58-23.71,10.62-24.51C31.74,50.77,32.35,50.78,33,50.78Z"/><path class="cls-3" d="M29.34,4.45S43.85,9.6,46.4,6.06"/></g></g></svg>