<svg xmlns="http://www.w3.org/2000/svg" viewBox="0 0 56.65 83.64"><defs><style>.cls-1{fill:#f5efe4;}.cls-2{fill:#f1d5d6;}.cls-3{fill:none;stroke:#8b1451;stroke-linecap:round;stroke-linejoin:round;}</style></defs><title>img8</title><g id="Слой_2" data-name="Слой 2"><g id="Capa_1" data-name="Capa 1"><path class="cls-1" d="M55.78,29.63A33.79,33.79,0,0,0,48,24.16c-.34.64-.83,1.15-1.22,1.77a.34.34,0,0,1-.59,0c-1-1.74-3.09-6.56-5.56-6.38-1.63.12-2.64,1.57-4.41,1a20.89,20.89,0,0,1-4.4-2.14,12.59,12.59,0,0,1-3.52.78c-4.88-.27-9.11-4.39-14.25-4-6,.49-10.07,4.55-12.17,10,0,0-4.71,13.08,3.14,24.59,0,0-2.66,25.43,7.85,33,0,0,4.38,2,4.85-3.14,0,0-1.36-20.42,9.15-21.11.52,0,1,0,1.57,0h.46c.28,0,.57,0,.85,0,10.51.7,9.15,21.11,9.15,21.11.47,5.13,4.85,3.14,4.85,3.14,10.51-7.52,7.85-33,7.85-33C56.63,42.44,56.51,34.44,55.78,29.63Z"/><path class="cls-2" d="M13.82,20.46a14.45,14.45,0,0,1,2-.89c1.21-.44,9.64-1.84,10-.74l-.05-.13c-3.85-1.13-7.46-3.84-11.69-3.5-6,.49-10.07,4.55-12.17,10,0,0-4.71,13.08,3.14,24.59,0,0-2.66,25.43,7.85,33,0,0,4.38,2,4.85-3.14,0,0-.89-13.4,4.36-18.86-.19.09-.38.19-.57.3-3,1.78-3.42,4.9-4.19,8-.44,1.76-1.95,8-4.86,5.18-1.7-1.67-2.15-4.4-2.49-6.65a69,69,0,0,1-.78-7.45C9,55,9.79,49.54,13.79,45.92c-1-.66-2.07-1.09-3-1.82A7.51,7.51,0,0,1,8.63,41C5.71,33.73,6.29,24.58,13.82,20.46Z"/><path class="cls-2" d="M55.84,38.85a9.57,9.57,0,0,1-.42.89A14.3,14.3,0,0,1,50.34,45a49.18,49.18,0,0,1-4.61,2.5L44.64,48c-.35.17,0,.29.26.67a16.15,16.15,0,0,1,1.28,2.22,25.35,25.35,0,0,1,2,9.41c.17,3.46.47,7.12-.23,10.54a18.16,18.16,0,0,1-1.59,4.64A5.89,5.89,0,0,1,44.51,78a2.25,2.25,0,0,1-2.59.12,3.84,3.84,0,0,1-1-2.62c-.29-2.23-.71-4.5-1.22-6.68s-1.16-4.55-2.66-6.27a6.08,6.08,0,0,0-2.53-1.76c5.24,5.46,4.35,18.85,4.35,18.85.47,5.13,4.85,3.14,4.85,3.14,10.51-7.52,7.85-33,7.85-33A26,26,0,0,0,55.84,38.85Z"/><path class="cls-3" d="M55.78,29.63A33.79,33.79,0,0,0,48,24.16c-.34.64-.83,1.15-1.22,1.77a.34.34,0,0,1-.59,0c-1-1.74-3.09-6.56-5.56-6.38-1.63.12-2.64,1.57-4.41,1a20.89,20.89,0,0,1-4.4-2.14,12.59,12.59,0,0,1-3.52.78c-4.88-.27-9.11-4.39-14.25-4-6,.49-10.07,4.55-12.17,10,0,0-4.71,13.08,3.14,24.59,0,0-2.66,25.43,7.85,33,0,0,4.38,2,4.85-3.14,0,0-1.36-20.42,9.15-21.11.52,0,1,0,1.57,0h.46c.28,0,.57,0,.85,0,10.51.7,9.15,21.11,9.15,21.11.47,5.13,4.85,3.14,4.85,3.14,10.51-7.52,7.85-33,7.85-33C56.63,42.44,56.51,34.44,55.78,29.63Z"/><path class="cls-3" d="M45,12.38c1.44-2,4.54-7.46,5.83-9.4"/><path class="cls-3" d="M40.76,12.11c0-2.39-.11-7-.24-11.61"/><path class="cls-3" d="M36.77,13.21c-3.07-5.53-4-6.73-6.15-11.07"/></g></g></svg>