<!-- icon666.com - MILLIONS vector ICONS FREE --><svg id="Layer_1" enable-background="new 0 0 24 24" viewBox="0 0 24 24" xmlns="http://www.w3.org/2000/svg"><path d="m22.1508789 8.6513672-6.3818359-.9755859-2.8637695-6.1005859c-.1645508-.3515626-.5175782-.5751954-.9052735-.5751954s-.7407227.2236328-.9052734.5751953l-2.8637696 6.100586-6.3818359.9755859c-.3706055.0566406-.6782227.3154297-.7973633.6708984s-.0292969.7470703.2324219 1.015625l4.6474609 4.7626953-1.0986328 6.7382813c-.0620117.3779297.0976563.7578125.4106445.9785156.3144532.2207031.7241211.2431641 1.0600586.0576172l5.6962891-3.1484375 5.6962891 3.1484375c.1513672.0839844.3178711.125.4838867.125.2021484 0 .4038086-.0615234.5761719-.1826172.3129883-.2207031.4726563-.6005859.4106445-.9785156l-1.0986328-6.7382813 4.6474609-4.7626953c.2617188-.2685547.3515625-.6601563.2324219-1.015625s-.4267578-.6142578-.7973633-.6708984zm-5.8666992 5.4140625c-.2216797.2265625-.3222656.5458984-.2709961.859375l.8486328 5.2041016-4.3779297-2.4199219c-.1508789-.0830078-.3173828-.125-.4838867-.125s-.3330078.0419922-.4838867.125l-4.3779297 2.4199219.8486328-5.2041016c.0512695-.3134766-.0493164-.6328125-.2709961-.859375l-3.640625-3.7314453 4.9853516-.7617188c.3295898-.0498047.612793-.2617188.7543945-.5634766l2.1850586-4.6552734 2.1850586 4.6552734c.1416016.3017578.4248047.5136719.7543945.5634766l4.9853516.7617188z"></path></svg>