<svg xmlns="http://www.w3.org/2000/svg" viewBox="0 0 109.32 122.37"><defs><style>.cls-1{isolation:isolate;}.cls-2{fill:#fffce5;}.cls-11,.cls-12,.cls-2,.cls-9{stroke:#002036;}.cls-11,.cls-12,.cls-2{stroke-miterlimit:10;stroke-width:1.09px;}.cls-12,.cls-3,.cls-4{fill:#fff;}.cls-3{mix-blend-mode:soft-light;}.cls-5{fill:#ebdcdb;}.cls-5,.cls-7{mix-blend-mode:multiply;}.cls-6{fill:#b17f4a;}.cls-7{fill:#d6c1c0;}.cls-8{fill:#002036;}.cls-9{fill:none;stroke-linejoin:round;stroke-width:1.63px;}.cls-11,.cls-12,.cls-9{stroke-linecap:round;}.cls-10{fill:#f8c29e;}.cls-11{fill:#ea4c6d;}.cls-13{fill:#b7e2fa;}.cls-14{fill:#a1daf8;}</style></defs><title>Ресурс 2</title><g class="cls-1"><g id="Слой_2" data-name="Слой 2"><g id="Capa_1" data-name="Capa 1"><path class="cls-2" d="M76.05,10.91c-7.29,0-13.86,6.61-23.7,6.61s-16.41-6.61-23.7-6.61C14.24,10.91-1.38,31.47.74,48c2.36,18.4,22.84,73.86,37,73.86,7,0,6.94-13.86,10.51-28.73,1.63-6.8,4.89-7.61,6.53.54,3.05,15.27,5.71,28.18,12.24,28.18,14.14,0,35-59.07,37-73.86C106.14,31.48,90.09,10.91,76.05,10.91Z"/><path class="cls-3" d="M33.05,96.18c6.73.54,5.39-19.76,19.3-20.58,8-.47,11.52,3.5,12.7,9.66,1.25,6.52.78,12.61,7.8,12.19S99,66.82,98.48,47.65c-.24-8.76-3.95-18.61-8.07-26.32a15,15,0,0,0-13.82-7.75c-7.06.26-13.36,5-19.35,8.21-8.06,4.38-14-2.94-21.25-4.91C29,15,22.64,16.85,18.05,22.59c-5.55,6.94-5.64,17.19-3.63,25.46C15.89,54.09,26.33,95.63,33.05,96.18Z"/><path class="cls-4" d="M51.83,26.12c4.77.51,8.73-.66,13.28-2s9.27-2,13.53.2c8.71,4.55,12.83,15.8,14.48,24.9,1,5.47,1.69,11,.86,16.58a37.58,37.58,0,0,1-1.11,4.94c3.44-7.87,5.81-16.23,5.62-23.14-.24-8.76-3.95-18.61-8.07-26.32a15,15,0,0,0-13.82-7.75c-7.06.26-13.36,5-19.35,8.21-8.06,4.38-14-2.94-21.25-4.91a21.06,21.06,0,0,0-2.5-.52C38.17,21.51,45.1,25.41,51.83,26.12Z"/><path class="cls-5" d="M38.69,19.81c3.63,2.94,7.58,5,12.13,4.15,5.44-1,12.22-5,14.24-9.7-3.76,1.64-7.83,3.26-12.7,3.26C43,17.52,36.63,11.59,29.79,11,32.77,13.89,35.41,17.16,38.69,19.81Z"/><path class="cls-6" d="M41.28,22.61c2.93,1.61,5.61,3.94,5.88,5.5,7.54-.64,13.75-6.35,18.94-9.45-2.62-3.6-10.37,1-16.2,1-11.15,0-10.54-3.63-17.94-3.63C34.53,22.12,38.35,21,41.28,22.61Z"/><path class="cls-7" d="M59.32,21c-2.7,1-5.54,3.75-8.63,3.4a11.61,11.61,0,0,1-5-1.55,17.18,17.18,0,0,0-3.41-2c-1.48-.47-3-.76-4.49-1.13a34.11,34.11,0,0,0-3.62-1.16,5.82,5.82,0,0,1-1-.22c2.46,3.51,5.6,2.91,8.09,4.28,2.93,1.61,5.61,3.94,5.88,5.5,6.51-.55,12-4.89,16.77-8.06A13.45,13.45,0,0,0,59.32,21Z"/><path class="cls-5" d="M82.79,93.82c-2.66,4-9.84,9-15.38,7.47s-5.9-9.11-6.94-13.57c-.49-2.1-.81-5.8-3.08-6.8a8.31,8.31,0,0,0-7.28.41,18.55,18.55,0,0,0-8.52,12.5c-.7,4.6-1.54,11.13-7.48,11.25-3.12.07-4.72-3.36-6.55-5.48-3-3.42-16.19-26.8-26.41-49,3.75,20.56,23,71.18,36.55,71.18,7,0,6.94-13.86,10.51-28.73,1.63-6.8,4.89-7.61,6.53.54,3.05,15.27,5.71,28.18,12.24,28.18,10.21,0,24-30.83,31.52-53.53C93.48,78.6,88.62,85.16,82.79,93.82Z"/><path class="cls-8" d="M38.44,51.7c-7.07-6-10.28,1.77-12.18.73-.11-.06.79-.65.75-.92s-1,.15-1,0,.69-.94.72-1.25-.76-.29-.58-.59C27.81,46.86,35.13,44.26,38.44,51.7Z"/><path class="cls-9" d="M26.31,41.94C30.87,38.59,37.1,48,39.5,46.16"/><path class="cls-8" d="M65.62,51.7c7.07-6,10.28,1.77,12.18.73.11-.06-.79-.65-.75-.92s1,.15,1,0-.69-.94-.72-1.25.76-.29.58-.59C76.24,46.86,68.92,44.26,65.62,51.7Z"/><path class="cls-9" d="M77.74,41.94C73.19,38.59,67,48,64.55,46.16"/><path class="cls-8" d="M20.49,17.44a4.5,4.5,0,0,0-2.54,1.23,7.19,7.19,0,0,0-2,2.54.05.05,0,0,0,.09.05A8.68,8.68,0,0,1,18.21,19c.71-.54,1.75-.75,2.36-1.37A.12.12,0,0,0,20.49,17.44Z"/><path class="cls-8" d="M21.45,18.23A4,4,0,0,0,18.67,20c0,.05,0,.13.09.09a6.93,6.93,0,0,1,2.87-1.21C22,18.78,21.86,18.15,21.45,18.23Z"/><path class="cls-8" d="M20.4,90.51C20,90,19.43,89.6,19,89.1a4.66,4.66,0,0,1-1.16-2.22s-.07,0-.08,0c-.17,1.51,1,3.63,2.62,3.73C20.41,90.63,20.43,90.55,20.4,90.51Z"/><path class="cls-8" d="M22.44,89.69c-.8-.71-1.92-1-2.58-1.89a.06.06,0,0,0-.12,0,2.74,2.74,0,0,0,2.64,2A.07.07,0,0,0,22.44,89.69Z"/><path class="cls-8" d="M87.91,82.46c-.48,1-.65,2-1.14,3S85.6,87.21,85,88.1a0,0,0,0,0,0,0c1.56-1.05,3.25-3.66,3.14-5.59C88.2,82.39,88,82.31,87.91,82.46Z"/><path class="cls-8" d="M87.06,80.88a.11.11,0,0,0-.2,0,4.36,4.36,0,0,0-.49,1.66,10.73,10.73,0,0,1-.51,1.75c-.07.17.19.25.28.12C86.78,83.47,87.48,82,87.06,80.88Z"/><path class="cls-8" d="M78,13.81a4.14,4.14,0,0,0-3.88-.1c-.05,0,0,.11,0,.11.58,0,1.15-.06,1.73-.07A20.75,20.75,0,0,1,78,14C78.09,14,78.1,13.86,78,13.81Z"/><path class="cls-8" d="M79.42,15.46A3.12,3.12,0,0,0,76.33,15c-.12,0-.1.24,0,.23a3.8,3.8,0,0,1,2.21.43c.22.11.82.59.93.1A.31.31,0,0,0,79.42,15.46Z"/><ellipse class="cls-10" cx="74.41" cy="60.56" rx="5.1" ry="2.63"/><ellipse class="cls-10" cx="33.75" cy="60.56" rx="5.1" ry="2.63"/><path class="cls-11" d="M39.16,75.5c-3.65-2.82,1.8-12.78,6-14S50.06,63,54,63,58.2,60,62.64,61.59s7,9.56,5,14.73c-1,2.52-7.68-2.85-14.05-2.95C46.87,73.27,42.7,78.23,39.16,75.5Z"/><path class="cls-12" d="M63.64,66.54c1.63,0,.93-4.25-1-5C58.2,60,58,63,54,63s-4.56-2.73-8.81-1.53c-1.8.51-2.84,5-1.48,5H58.18c.58,0,1.25-1,1.25-1s.69,1,1.34,1Z"/><path class="cls-8" d="M68.07,57.5a.18.18,0,0,0,0,.36A.18.18,0,0,0,68.07,57.5Z"/><path class="cls-8" d="M69.86,57.19a.67.67,0,0,0,0,1.34A.67.67,0,0,0,69.86,57.19Z"/><path class="cls-8" d="M73.54,56.93a.34.34,0,0,0,0,.68A.34.34,0,0,0,73.54,56.93Z"/><path class="cls-8" d="M72.15,58.28a.52.52,0,0,0,0,1A.52.52,0,0,0,72.15,58.28Z"/><path class="cls-8" d="M75.12,58.62a.58.58,0,0,0,0,1.16A.58.58,0,0,0,75.12,58.62Z"/><path class="cls-8" d="M77,56.36a.46.46,0,0,0,0,.92A.46.46,0,0,0,77,56.36Z"/><path class="cls-8" d="M79.71,57.07a.36.36,0,0,0,0,.72A.36.36,0,0,0,79.71,57.07Z"/><path class="cls-8" d="M79.5,59.37a.15.15,0,0,0,0,.29A.15.15,0,0,0,79.5,59.37Z"/><path class="cls-8" d="M69.47,60.53a.32.32,0,0,0,0,.63A.32.32,0,0,0,69.47,60.53Z"/><path class="cls-8" d="M67.62,58.9a.29.29,0,0,0,0,.57A.29.29,0,0,0,67.62,58.9Z"/><path class="cls-8" d="M72.25,61.08a.08.08,0,0,0,0,.17A.08.08,0,0,0,72.25,61.08Z"/><path class="cls-8" d="M74.41,60.54a.15.15,0,0,0,0,.3A.15.15,0,0,0,74.41,60.54Z"/><path class="cls-8" d="M28.63,57.5a.18.18,0,0,0,0,.36A.18.18,0,0,0,28.63,57.5Z"/><path class="cls-8" d="M30.42,57.19a.67.67,0,0,0,0,1.34A.67.67,0,0,0,30.42,57.19Z"/><path class="cls-8" d="M34.1,56.93a.34.34,0,0,0,0,.68A.34.34,0,0,0,34.1,56.93Z"/><path class="cls-8" d="M32.71,58.28a.52.52,0,0,0,0,1A.52.52,0,0,0,32.71,58.28Z"/><path class="cls-8" d="M35.68,58.62a.58.58,0,0,0,0,1.16A.58.58,0,0,0,35.68,58.62Z"/><path class="cls-8" d="M37.55,56.36a.46.46,0,0,0,0,.92A.46.46,0,0,0,37.55,56.36Z"/><path class="cls-8" d="M40.28,57.07a.36.36,0,0,0,0,.72A.36.36,0,0,0,40.28,57.07Z"/><path class="cls-8" d="M40.07,59.37a.15.15,0,0,0,0,.29A.15.15,0,0,0,40.07,59.37Z"/><path class="cls-8" d="M30,60.53a.32.32,0,0,0,0,.63A.32.32,0,0,0,30,60.53Z"/><path class="cls-8" d="M28.19,58.9a.29.29,0,0,0,0,.57A.29.29,0,0,0,28.19,58.9Z"/><path class="cls-8" d="M32.81,61.08a.08.08,0,0,0,0,.17A.08.08,0,0,0,32.81,61.08Z"/><path class="cls-8" d="M35,60.54a.15.15,0,0,0,0,.3A.15.15,0,0,0,35,60.54Z"/><path class="cls-8" d="M46.17,27.9l-.46-.69a5.58,5.58,0,0,0-.55-.74c-.23-.25-.45-.55-.76-.84s-.64-.62-1.05-.91a12.48,12.48,0,0,0-1.3-.88,26.56,26.56,0,0,0-3.11-1.57,32.41,32.41,0,0,1-3.21-1.56,12.26,12.26,0,0,1-1.38-.92,7.61,7.61,0,0,1-1-1.06l-.41-.52-.28-.52-.25-.46c-.06-.15-.1-.29-.15-.41L32,16.05l.32.76c.05.12.1.26.17.4l.28.43.31.48.43.47a7.34,7.34,0,0,0,1.08.94,11.92,11.92,0,0,0,1.39.79,32.09,32.09,0,0,0,3.27,1.29A27.41,27.41,0,0,1,42.53,23a13.51,13.51,0,0,1,1.46.84c.46.28.85.63,1.23.91s.68.65,1,.92a6.39,6.39,0,0,1,.64.74l.51.65a.73.73,0,1,1-1.14.9Z"/><path class="cls-8" d="M43.54,26.77l.32.1c.21.06.52.18.9.27a11.48,11.48,0,0,0,1.34.24,10.4,10.4,0,0,0,1.81.08,11.85,11.85,0,0,0,2.14-.28,15.32,15.32,0,0,0,2.34-.71A28.45,28.45,0,0,0,57.17,24c3.13-2,6.1-4.38,8.79-5.37a7.23,7.23,0,0,1,1.89-.43,4.88,4.88,0,0,1,1.48.14,3.87,3.87,0,0,1,.88.35l.3.15-.31-.14a3.83,3.83,0,0,0-.89-.31,4.77,4.77,0,0,0-1.45-.06A7.07,7.07,0,0,0,66,18.8c-2.58,1.08-5.4,3.59-8.47,5.76a29.22,29.22,0,0,1-4.8,2.83,16.35,16.35,0,0,1-2.46.88,13,13,0,0,1-2.33.42,11.71,11.71,0,0,1-2,0,12.65,12.65,0,0,1-1.57-.21c-.42-.09-.71-.18-.93-.23l-.33-.09a.72.72,0,0,1,.36-1.4Z"/><polygon class="cls-8" points="45.86 66.55 46.4 63.55 46.94 66.55 45.86 66.55"/><polygon class="cls-8" points="51.16 66.37 51.7 64.14 52.25 66.37 51.16 66.37"/><path class="cls-8" d="M57.83,76.27c-2.35-2.1-5.61-1.39-8,.23a.12.12,0,0,0,.09.22,11.69,11.69,0,0,1,3.21-.35,9.17,9.17,0,0,1,3.67,1.25C57.63,78,58.6,77,57.83,76.27Z"/><path class="cls-8" d="M59.73,26c-1.86,1-3.24,2.51-5.27,3.34a22.79,22.79,0,0,1-6.92,1.35.07.07,0,0,0,0,.14c4,.19,10.45-.26,12.55-4.47A.26.26,0,0,0,59.73,26Z"/><path class="cls-8" d="M60.35,28.2a4.22,4.22,0,0,0-1.06.83L58.16,30a.09.09,0,0,0,0,.15,1.94,1.94,0,0,0,1.3-.36,2.14,2.14,0,0,0,1.09-1.3C60.61,28.32,60.51,28.14,60.35,28.2Z"/><path class="cls-13" d="M82.5,57.82c.46,1.88-.85,4.65-3,5-1.87.28-3-1.38-2.32-3.2a10,10,0,0,0-.53-7.83S81.47,53.57,82.5,57.82Z"/><path class="cls-14" d="M78.9,59.23c.51-5-2.2-7.48-2.2-7.48a10,10,0,0,1,.53,7.83c-.65,1.82.45,3.47,2.32,3.2a2.83,2.83,0,0,0,1.08-.4A4.08,4.08,0,0,1,78.9,59.23Z"/><path class="cls-4" d="M81.08,56.83c.17,1.14-1,3.35-.71,3.75a.72.72,0,0,0,1.12.08A3,3,0,0,0,81.08,56.83Z"/><path class="cls-13" d="M22.15,57.82c-.46,1.88.85,4.65,3,5,1.87.28,3-1.38,2.32-3.2A10,10,0,0,1,28,51.75S23.19,53.57,22.15,57.82Z"/><path class="cls-14" d="M25.75,59.23c-.51-5,2.2-7.48,2.2-7.48a10,10,0,0,0-.53,7.83c.65,1.82-.45,3.47-2.32,3.2a2.83,2.83,0,0,1-1.08-.4A4.08,4.08,0,0,0,25.75,59.23Z"/><path class="cls-4" d="M23.58,56.83c-.17,1.14,1,3.35.71,3.75a.72.72,0,0,1-1.12.08A3,3,0,0,1,23.58,56.83Z"/><path class="cls-8" d="M103.49,30.68a0,0,0,0,0,0,0A37,37,0,0,1,108,44.82a.07.07,0,0,0,.14,0C108.68,39.78,106.1,34.81,103.49,30.68Z"/><path class="cls-8" d="M108.82,37a4.31,4.31,0,0,0-1.52-2.69s-.06,0,0,0a10.27,10.27,0,0,1,.91,3.2c.13.9.09,2.07.72,2.79a.22.22,0,0,0,.37-.1A8.31,8.31,0,0,0,108.82,37Z"/><path class="cls-8" d="M8,19.83a11.8,11.8,0,0,0-3.37,3.45,20.09,20.09,0,0,0-2.82,4.25c0,.08.07.15.14.11a14.88,14.88,0,0,0,3.09-3.4c1.08-1.36,2.41-2.57,3.37-4C8.61,20,8.28,19.69,8,19.83Z"/><path class="cls-8" d="M6.34,19.4a18.49,18.49,0,0,0-4.45,4.46s0,.1.07.07a24,24,0,0,0,4.57-4.28C6.65,19.52,6.5,19.3,6.34,19.4Z"/><path class="cls-8" d="M46.23,13.25a6.18,6.18,0,0,0-2.7-1.12c.07-.46,0-1-.46-1.1a1.2,1.2,0,0,0-.86.15c-1.33.69-1.54-1-1.77-2a.61.61,0,0,0-.74-.42C38,9.11,36.5,10.59,36,8.14a.41.41,0,0,0-.4-.31,4.42,4.42,0,0,0-2.49.91c-.05,0,0,.12.06.11,2.13-.4,1.86-.06,2.46,1.71a.55.55,0,0,0,.66.37,23.44,23.44,0,0,0,3.09-.87,3.73,3.73,0,0,0,1.38,2.61.89.89,0,0,0,.63.07c.37-.14,1-.7.88-.29a.57.57,0,0,0,.54.71c1.11.14,1.92.83,3,1A.51.51,0,0,0,46.23,13.25Z"/><path class="cls-8" d="M46.09,9.41a.26.26,0,0,0-.32-.18,5.71,5.71,0,0,1-2,.36A1.35,1.35,0,0,0,42,8.9,0,0,0,0,0,42,9a1.05,1.05,0,0,1,1.22,1,.29.29,0,0,0,.28.21,10,10,0,0,0,2.05-.37,2,2,0,0,0,.36,1.2.24.24,0,0,0,.37,0C46.6,10.44,46.21,9.94,46.09,9.41Z"/><path class="cls-8" d="M12.52,92.38a7,7,0,0,0-1.64-.55c-1.42-.33-1.61-1.38-1.79-2.56a.5.5,0,0,0-.49-.37H8.25a8.06,8.06,0,0,0-.48-2c-.32-.91.63-1.76.37-2.66-.54-1.85-2.79-1.11-3.56-2.89a.07.07,0,0,0-.13,0,2.11,2.11,0,0,0,1.78,2c1.65.46.74,2,.55,3s.5,2,.5,3a.51.51,0,0,0,.5.5c.1,0,1,2,1.27,2.31.72.72,2.17.72,3.09,1.07C12.66,93.48,13,92.63,12.52,92.38Z"/><path class="cls-8" d="M8.62,93.27c-.24-1.1-1.56-1.07-2-2a.11.11,0,0,0-.2.05A1.48,1.48,0,0,0,7,92.4c.18.13.37.24.54.38a1.51,1.51,0,0,1,.4.67.36.36,0,0,0,.32.25.24.24,0,0,0,.17,0A.34.34,0,0,0,8.62,93.27Z"/><path class="cls-8" d="M96.94,82.27a.24.24,0,0,0-.36.27c.45,1.53-.38,2.39-1.11,3.45-.26.38-.61.9-.29,1.38s-.84,2.22-1,2.73c-.35,1.45-1.63,2.42-2.5,3.59a.39.39,0,0,0,.14.54c1,.59,1.89,2.76.79,3.48a15.69,15.69,0,0,1-4,1.81.08.08,0,0,0,0,.15c1.63,1,4-1.16,5.41-1.91a.4.4,0,0,0,.14-.54c-.4-.92-.53-1.89-1-2.8s-.71-.54.24-1.53c1.36-1.41,1.45-2.72,2.58-4.23.43-.57.51-.59.32-1.22-.26-.89.79-1.36,1.16-2A2.24,2.24,0,0,0,96.94,82.27Z"/><path class="cls-8" d="M97.42,88.25c-.84.74-1.62,2.5-.47,3a30,30,0,0,0-2.23,2.43.26.26,0,0,0,.32.41,6.75,6.75,0,0,0,2.67-2.82c.06-.13,0-.34-.15-.37-1.61-.23,0-1.73.32-2.33A.29.29,0,0,0,97.42,88.25Z"/><path class="cls-8" d="M88.84.66A.73.73,0,0,0,87.69.14a7,7,0,0,0-1.81,3.71,9.59,9.59,0,0,0-.37,4.95A.66.66,0,0,0,86.63,9a10,10,0,0,0,1.23-3.62C88.24,3.85,88.93,2.23,88.84.66Z"/><path class="cls-8" d="M95,5.23A10.26,10.26,0,0,0,92.3,7a26.58,26.58,0,0,0-2.7,2.37.41.41,0,0,0,.35.66,7.33,7.33,0,0,0,3-1.54A14.18,14.18,0,0,0,95.6,6,.5.5,0,0,0,95,5.23Z"/><path class="cls-8" d="M100.36,9.35c-2.69.38-5,1.81-7.78,1.9-.68,0-.8.87-.39,1.27,1.1,1.08,2.84.77,4.2.43A9.59,9.59,0,0,0,101,10.59.76.76,0,0,0,100.36,9.35Z"/></g></g></g></svg>