<svg xmlns="http://www.w3.org/2000/svg" viewBox="0 0 129.9 112.01"><defs><style>.cls-1{isolation:isolate;}.cls-2{fill:#f3faff;}.cls-10,.cls-11,.cls-2,.cls-7,.cls-9{stroke:#002036;}.cls-10,.cls-11,.cls-2,.cls-9{stroke-miterlimit:10;}.cls-11,.cls-2{stroke-width:1.09px;}.cls-3,.cls-4,.cls-9{fill:#fff;}.cls-3{opacity:0.7;}.cls-5{fill:#e6f5fe;}.cls-12,.cls-5{mix-blend-mode:multiply;}.cls-6{fill:#002036;}.cls-10,.cls-7{fill:none;}.cls-10,.cls-11,.cls-7,.cls-9{stroke-linecap:round;}.cls-7{stroke-linejoin:round;stroke-width:1.63px;}.cls-8{fill:#f8c2c0;}.cls-10,.cls-9{stroke-width:0.97px;}.cls-11,.cls-12{fill:#c6c6c6;}.cls-13{fill:#e2e1e1;}</style></defs><title>Ресурс 6</title><g class="cls-1"><g id="Слой_2" data-name="Слой 2"><g id="Capa_1" data-name="Capa 1"><path class="cls-2" d="M87.35.54c-7.29,0-13.86,6.61-23.7,6.61S47.23.54,39.94.54C25.53.54,9.92,21.11,12,37.61c2.36,18.4,22.84,73.86,37,73.86,7,0,6.94-13.86,10.51-28.73,1.63-6.8,4.89-7.61,6.52.54,3.05,15.27,5.71,28.18,12.24,28.18,14.14,0,35-59.07,37-73.86C117.43,21.11,101.39.54,87.35.54Z"/><path class="cls-3" d="M44.36,85.81c6.72.54,5.39-19.76,19.3-20.58,8-.47,11.52,3.5,12.7,9.66,1.25,6.52.78,12.61,7.79,12.19s26.16-30.63,25.64-49.79c-.24-8.76-3.95-18.61-8.07-26.32A15,15,0,0,0,87.91,3.21c-7.06.26-13.36,5-19.35,8.21-8.06,4.38-14-2.94-21.25-4.91-6.94-1.88-13.35,0-17.94,5.71-5.55,6.93-5.64,17.19-3.63,25.46C27.2,43.72,37.64,85.27,44.36,85.81Z"/><path class="cls-4" d="M63.14,15.76c4.77.51,8.73-.66,13.28-2s9.27-2,13.53.2c8.71,4.55,12.83,15.8,14.47,24.9,1,5.47,1.69,11,.86,16.58a37.87,37.87,0,0,1-1.11,4.94c3.44-7.87,5.81-16.22,5.62-23.14-.24-8.76-3.95-18.61-8.07-26.32A15,15,0,0,0,87.91,3.21c-7.06.26-13.36,5-19.35,8.21-8.06,4.38-14-2.94-21.25-4.91A21,21,0,0,0,44.8,6C49.49,11.15,56.41,15,63.14,15.76Z"/><path class="cls-5" d="M50,9.45a15.82,15.82,0,0,0,12.88,3c5.44-1,11.47-3.85,13.48-8.5-3.76,1.64-7.83,3.26-12.7,3.26C54.32,7.16,47.93,1.22,41.08.6,44.07,3.53,46.71,6.79,50,9.45Z"/><path class="cls-5" d="M94.08,83.46c-2.66,4-9.84,9-15.38,7.47s-5.9-9.11-6.94-13.57c-.49-2.1-.81-5.8-3.08-6.8a8.31,8.31,0,0,0-7.28.41,18.54,18.54,0,0,0-8.52,12.5c-.7,4.6-1.54,11.13-7.48,11.25-3.12.06-4.72-3.36-6.55-5.48-3-3.42-16.19-26.8-26.41-49,3.75,20.56,23,71.18,36.55,71.18,7,0,6.94-13.86,10.51-28.73,1.63-6.8,4.89-7.61,6.52.54,3.05,15.27,5.71,28.18,12.24,28.18,10.21,0,24-30.84,31.52-53.53C104.78,68.23,99.91,74.8,94.08,83.46Z"/><circle class="cls-6" cx="45.65" cy="39.01" r="5.3"/><circle class="cls-4" cx="47.62" cy="40.57" r="1.56"/><circle class="cls-4" cx="46.05" cy="38" r="1.01"/><circle class="cls-6" cx="84.14" cy="39.01" r="5.3"/><circle class="cls-4" cx="82.17" cy="40.57" r="1.56"/><circle class="cls-4" cx="83.73" cy="38" r="1.01"/><path class="cls-7" d="M90.4,29.74c-1.27-5-9.67-5.07-10.24-.54"/><path class="cls-7" d="M39.93,29.74c1.27-5,9.67-5.07,10.24-.54"/><path class="cls-6" d="M74.26,5.42l-.89.3c-.28.1-.64.2-1,.36l-1.27.52c-.94.37-2,.88-3.24,1.32-.6.22-1.22.48-1.86.69l-2,.61c-.65.23-1.33.32-2,.49s-1.3.33-1.94.4l-1.84.24a13.87,13.87,0,0,1-1.65.17l-3.41.09,3.4-.26a13.8,13.8,0,0,0,1.63-.25L60,9.77c.63-.1,1.25-.33,1.9-.49s1.31-.32,1.93-.58l1.9-.7c.62-.23,1.22-.52,1.8-.77,1.17-.49,2.22-1,3.16-1.48L72,5.15c.38-.19.72-.29,1-.41l.87-.34a.54.54,0,0,1,.4,1h0Z"/><path class="cls-6" d="M31.78,7.08a4.5,4.5,0,0,0-2.54,1.23,7.21,7.21,0,0,0-2,2.54.05.05,0,0,0,.09.05,8.66,8.66,0,0,1,2.17-2.24c.71-.54,1.75-.75,2.36-1.37A.12.12,0,0,0,31.78,7.08Z"/><path class="cls-6" d="M32.75,7.86A4,4,0,0,0,30,9.61c0,.05,0,.13.09.09a6.94,6.94,0,0,1,2.87-1.21C33.33,8.41,33.16,7.79,32.75,7.86Z"/><path class="cls-6" d="M31.69,80.15c-.42-.54-1-.91-1.43-1.42a4.65,4.65,0,0,1-1.16-2.22s-.07,0-.08,0c-.17,1.51,1,3.63,2.62,3.73C31.71,80.26,31.72,80.19,31.69,80.15Z"/><path class="cls-6" d="M33.73,79.33c-.8-.71-1.92-1-2.58-1.89a.06.06,0,0,0-.12,0,2.74,2.74,0,0,0,2.64,2A.07.07,0,0,0,33.73,79.33Z"/><path class="cls-6" d="M99.2,72.09c-.48,1-.65,2-1.14,3s-1.17,1.74-1.73,2.63a0,0,0,0,0,0,0c1.56-1.05,3.24-3.66,3.14-5.6C99.49,72,99.28,71.94,99.2,72.09Z"/><path class="cls-6" d="M98.36,70.51a.11.11,0,0,0-.2,0,4.39,4.39,0,0,0-.49,1.66,10.7,10.7,0,0,1-.51,1.75c-.07.17.19.25.28.12C98.07,73.11,98.78,71.64,98.36,70.51Z"/><path class="cls-6" d="M89.33,3.45a4.14,4.14,0,0,0-3.88-.1c-.05,0,0,.11,0,.11.58,0,1.15-.06,1.73-.07s1.38.19,2.08.24C89.39,3.63,89.4,3.5,89.33,3.45Z"/><path class="cls-6" d="M90.71,5.1a3.13,3.13,0,0,0-3.09-.46c-.12,0-.1.24,0,.23a3.8,3.8,0,0,1,2.21.43c.21.11.82.6.93.1A.31.31,0,0,0,90.71,5.1Z"/><ellipse class="cls-8" cx="85.7" cy="50.2" rx="5.1" ry="2.63"/><ellipse class="cls-8" cx="45.05" cy="50.2" rx="5.1" ry="2.63"/><path class="cls-6" d="M79.45,47.2a.18.18,0,0,0,0,.36A.18.18,0,0,0,79.45,47.2Z"/><path class="cls-6" d="M81.24,46.89a.67.67,0,0,0,0,1.35A.67.67,0,0,0,81.24,46.89Z"/><path class="cls-6" d="M84.92,46.63a.34.34,0,0,0,0,.68A.34.34,0,0,0,84.92,46.63Z"/><path class="cls-6" d="M83.53,48a.52.52,0,0,0,0,1A.52.52,0,0,0,83.53,48Z"/><path class="cls-6" d="M86.5,48.32a.58.58,0,0,0,0,1.16A.58.58,0,0,0,86.5,48.32Z"/><path class="cls-6" d="M88.37,46.06a.46.46,0,0,0,0,.92A.46.46,0,0,0,88.37,46.06Z"/><path class="cls-6" d="M91.1,46.77a.36.36,0,0,0,0,.72A.36.36,0,0,0,91.1,46.77Z"/><path class="cls-6" d="M90.89,49.07a.15.15,0,0,0,0,.29A.15.15,0,0,0,90.89,49.07Z"/><path class="cls-6" d="M80.85,50.23a.32.32,0,0,0,0,.64A.32.32,0,0,0,80.85,50.23Z"/><path class="cls-6" d="M79,48.6a.29.29,0,0,0,0,.57A.29.29,0,0,0,79,48.6Z"/><path class="cls-6" d="M83.63,50.78a.08.08,0,0,0,0,.17A.08.08,0,0,0,83.63,50.78Z"/><path class="cls-6" d="M85.79,50.24a.15.15,0,0,0,0,.3A.15.15,0,0,0,85.79,50.24Z"/><path class="cls-6" d="M40,47.2a.18.18,0,0,0,0,.36A.18.18,0,0,0,40,47.2Z"/><path class="cls-6" d="M41.8,46.89a.67.67,0,0,0,0,1.35A.67.67,0,0,0,41.8,46.89Z"/><path class="cls-6" d="M45.49,46.63a.34.34,0,0,0,0,.68A.34.34,0,0,0,45.49,46.63Z"/><path class="cls-6" d="M44.1,48a.52.52,0,0,0,0,1A.52.52,0,0,0,44.1,48Z"/><path class="cls-6" d="M47.06,48.32a.58.58,0,0,0,0,1.16A.58.58,0,0,0,47.06,48.32Z"/><path class="cls-6" d="M48.93,46.06a.46.46,0,0,0,0,.92A.46.46,0,0,0,48.93,46.06Z"/><path class="cls-6" d="M51.66,46.77a.36.36,0,0,0,0,.72A.36.36,0,0,0,51.66,46.77Z"/><path class="cls-6" d="M51.45,49.07a.15.15,0,0,0,0,.29A.15.15,0,0,0,51.45,49.07Z"/><path class="cls-6" d="M41.41,50.23a.32.32,0,0,0,0,.64A.32.32,0,0,0,41.41,50.23Z"/><path class="cls-6" d="M39.57,48.6a.29.29,0,0,0,0,.57A.29.29,0,0,0,39.57,48.6Z"/><path class="cls-6" d="M44.19,50.78a.08.08,0,0,0,0,.17A.08.08,0,0,0,44.19,50.78Z"/><path class="cls-6" d="M46.35,50.24a.15.15,0,0,0,0,.3A.15.15,0,0,0,46.35,50.24Z"/><path class="cls-9" d="M46.05,59.92c1.87,6.9,3.95,14.17,18.82,14.17s17-9.41,18.2-15.23c.79-3.88-.35-7.91-4.35-6-3.3,1.55-8.29-1.79-13.85-1.88-5.25-.09-10.05,2.94-13.93,1.27C46.35,50.24,45,56.1,46.05,59.92Z"/><line class="cls-10" x1="46.63" y1="61.96" x2="81.96" y2="61.96"/><rect class="cls-11" x="55.82" y="53.51" width="18.11" height="18.11" rx="2.94" ry="2.94"/><path class="cls-12" d="M60,61.71c1.8-.2,3.65.1,5.49,0,2.46-.14,3.69,5.64,6.15,5.68a53.58,53.58,0,0,0,1.13-9.16c.15-2-2.25-2.75-3.29-2.66-1.38.11-1.16,1.84-5.89,1.15-.73-.11-2.16-1.42-4.37-.49a8.11,8.11,0,0,1,.8,5.22C60,61.53,60,61.62,60,61.71Z"/><path class="cls-12" d="M72.09,68.06c-2.26,1.8-4.87,2-7.67,2.15-3.13.17-5.93-1.11-6.83-4.33A43.26,43.26,0,0,1,56.23,55a2.93,2.93,0,0,0-.41,1.48V68.68a2.94,2.94,0,0,0,2.94,2.94H71a2.94,2.94,0,0,0,2.94-2.94V65.75A7.39,7.39,0,0,1,72.09,68.06Z"/><rect class="cls-11" x="59.93" y="57.62" width="9.89" height="9.89" rx="1.6" ry="1.6"/><path class="cls-12" d="M59.93,63.87v2a1.6,1.6,0,0,0,1.6,1.6h6.68a1.6,1.6,0,0,0,1.6-1.6v-2Z"/><path class="cls-11" d="M61.82,67.39A1.77,1.77,0,0,1,60,69.16h0a1.77,1.77,0,0,1-1.77-1.77V58.16A1.77,1.77,0,0,1,60,56.38h0a1.77,1.77,0,0,1,1.77,1.77Z"/><path class="cls-11" d="M71.59,67.39a1.77,1.77,0,0,1-1.77,1.77h0A1.77,1.77,0,0,1,68,67.39V58.16a1.77,1.77,0,0,1,1.77-1.77h0a1.77,1.77,0,0,1,1.77,1.77Z"/><path class="cls-13" d="M67.26,59.39A1.24,1.24,0,0,1,66,60.64h-2.1a1.24,1.24,0,0,1-1.24-1.25h0a1.24,1.24,0,0,1,1.24-1.24H66a1.25,1.25,0,0,1,1.25,1.24Z"/><path class="cls-13" d="M71.66,54.68c0,.32-.35.58-.78.58h-12c-.43,0-.78-.26-.78-.58h0c0-.32.35-.58.78-.58h12c.43,0,.78.26.78.58Z"/><path class="cls-13" d="M70.4,57.62a.55.55,0,0,1,.58.5V65.8a.55.55,0,0,1-.58.5h0a.55.55,0,0,1-.58-.5V58.11a.55.55,0,0,1,.58-.5Z"/><path class="cls-13" d="M60.63,57.62a.55.55,0,0,1,.59.5V65.8a.55.55,0,0,1-.59.5h0a.55.55,0,0,1-.58-.5V58.11a.55.55,0,0,1,.58-.5Z"/><polygon class="cls-6" points="48.45 61.96 48.93 56.01 49.42 61.96 48.45 61.96"/><polygon class="cls-6" points="53.53 61.96 54.01 56.38 54.5 61.96 53.53 61.96"/><polygon class="cls-6" points="52.96 61.96 52.47 69.17 51.99 61.96 52.96 61.96"/><polygon class="cls-6" points="76.82 61.96 77.31 56.38 77.79 61.96 76.82 61.96"/><polygon class="cls-6" points="78.79 61.96 78.3 67.39 77.82 61.96 78.79 61.96"/><rect class="cls-11" x="74.08" y="60.13" width="55.28" height="4.76"/><rect class="cls-12" x="74.08" y="63.13" width="55.28" height="1.77"/><path class="cls-13" d="M128.23,61.36c0,.32-.35.59-.78.59H76.3c-.43,0-.78-.26-.78-.59h0c0-.32.35-.58.78-.58h51.15c.43,0,.78.26.78.58Z"/><rect class="cls-11" x="0.54" y="60.13" width="55.28" height="4.76"/><rect class="cls-12" x="0.54" y="63.13" width="55.28" height="1.77"/><path class="cls-13" d="M54.7,61.36c0,.32-.35.59-.78.59H2.77c-.43,0-.78-.26-.78-.59H2c0-.32.35-.58.78-.58H53.92c.43,0,.78.26.78.58Z"/></g></g></g></svg>