<svg xmlns="http://www.w3.org/2000/svg" viewBox="0 0 104.71 115.44"><defs><style>.cls-1{isolation:isolate;}.cls-2{fill:#f3faff;}.cls-10,.cls-11,.cls-2,.cls-8{stroke:#002036;}.cls-10,.cls-11,.cls-2{stroke-miterlimit:10;stroke-width:1.09px;}.cls-3{fill:#cfdce4;}.cls-12,.cls-3,.cls-6{mix-blend-mode:multiply;}.cls-4,.cls-5{fill:#fff;}.cls-4{opacity:0.5;}.cls-6{fill:#e6f5fe;}.cls-7{fill:#002036;}.cls-10,.cls-11,.cls-8{fill:none;}.cls-10,.cls-8{stroke-linecap:round;}.cls-8{stroke-linejoin:round;stroke-width:1.63px;}.cls-9{fill:#f8c2c0;}.cls-12{fill:#bcd6e6;}.cls-13{fill:#b7e2fa;}.cls-14{fill:#a1daf8;}</style></defs><title>Ресурс 1</title><g class="cls-1"><g id="Слой_2" data-name="Слой 2"><g id="Capa_1" data-name="Capa 1"><path class="cls-2" d="M76.05,4a14.2,14.2,0,0,0-3.35.43c-.55.13-.84,1.45-1.4,1.63s-1.43-.75-2-.52c-5,2-10.18,5.07-16.93,5.07C42.51,10.59,35.94,4,28.65,4,14.24,4-1.38,24.54.74,41c2.36,18.4,22.84,73.86,37,73.86,7,0,6.94-13.86,10.51-28.73,1.63-6.8,4.89-7.61,6.52.54C57.8,102,60.46,114.9,67,114.9c14.14,0,35-59.07,37-73.86.71-5.4-.53-11.24-3-16.65-.12-.26-1.06-.22-1.18-.48-.25-.52,1.13-.87,0-1.82-1.55-1.8-9-3.27-9-3.27S80.64,4.14,76.05,4Z"/><path class="cls-3" d="M93.61,27.62s4.74-4.65,6.22-5.5l0,0c-1.55-1.8-9-3.27-9-3.27S80.87,4.48,76.21,4a4.67,4.67,0,0,1-.72.42A26.14,26.14,0,0,1,73.2,6.65l-.34.53c-.47.76-.9,1.54-1.35,2.31-.17.76.93,7.06.93,7.06A10.11,10.11,0,0,1,68.9,20c0,.49,4.54-.41,5.21,1.11a7.45,7.45,0,0,0,2.61,3.32l7.13,2.68,2.66-1.5Z"/><path class="cls-4" d="M94,28.75a8.47,8.47,0,0,1-1,.43c-1.28.45-3.12.22-4.46.28-1.49.07-3,.22-4.47.14A16.39,16.39,0,0,1,70.25,19.17,13.46,13.46,0,0,1,71,8.66c-5.64,1.34-10.81,5-15.76,7.7-8.06,4.38-14-2.94-21.25-4.91-6.94-1.88-13.35,0-17.94,5.71-5.55,6.93-5.64,17.19-3.63,25.46,1.47,6,11.9,47.58,18.63,48.13S36.47,71,50.39,70.18c8-.47,11.52,3.5,12.7,9.66,1.25,6.52.78,12.61,7.79,12.19S97,61.39,96.52,42.23A48.9,48.9,0,0,0,94,28.75Z"/><path class="cls-5" d="M70.86,9c-5.09,1.56-9.8,4.85-14.34,7.31-8.06,4.38-14-2.94-21.25-4.91a21.08,21.08,0,0,0-2.5-.52c4.68,5.15,11.61,9,18.34,9.76,4.77.51,8.73-.66,13.28-2a31.48,31.48,0,0,1,5.45-1.11A13.54,13.54,0,0,1,70.86,9Z"/><path class="cls-5" d="M92.14,65.37c3.44-7.87,5.81-16.23,5.62-23.14A49.6,49.6,0,0,0,95,28.13a8.18,8.18,0,0,1-2.05,1.05c-1.28.45-3.12.22-4.46.28l-.79,0a51.28,51.28,0,0,1,4.69,14.35c1,5.47,1.69,11,.86,16.58A37.83,37.83,0,0,1,92.14,65.37Z"/><path class="cls-6" d="M38.69,12.88a15.82,15.82,0,0,0,12.88,3C57,14.87,63,12,65.05,7.33,61.3,9,57.22,10.59,52.35,10.59,43,10.59,36.63,4.65,29.78,4,32.77,7,35.41,10.23,38.69,12.88Z"/><path class="cls-6" d="M82.79,86.89c-2.66,4-9.84,9-15.38,7.47s-5.9-9.11-6.94-13.57c-.49-2.1-.81-5.8-3.08-6.8a8.31,8.31,0,0,0-7.28.41A18.54,18.54,0,0,0,41.6,86.9c-.7,4.6-1.54,11.13-7.48,11.25-3.12.06-4.72-3.36-6.55-5.48-3-3.42-16.19-26.8-26.41-49,3.75,20.56,23,71.18,36.55,71.18,7,0,6.94-13.86,10.51-28.73,1.63-6.8,4.89-7.61,6.52.54C57.8,102,60.46,114.9,67,114.9c10.21,0,24-30.84,31.52-53.53C93.48,71.67,88.62,78.23,82.79,86.89Z"/><circle class="cls-7" cx="34.35" cy="42.44" r="5.3"/><circle class="cls-5" cx="36.32" cy="44" r="1.56"/><circle class="cls-5" cx="34.76" cy="41.43" r="1.01"/><circle class="cls-7" cx="72.85" cy="42.44" r="5.3"/><circle class="cls-5" cx="70.88" cy="44" r="1.56"/><circle class="cls-5" cx="72.44" cy="41.43" r="1.01"/><path class="cls-8" d="M81.23,34.6c-3.08,0-8.38-1.48-10.78-3.35"/><path class="cls-8" d="M27.66,34.6c3.08,0,8.38-1.48,10.78-3.35"/><path class="cls-7" d="M62,9.2l-.82.35c-.53.22-1.26.54-2.14.94l-1.45.63c-.51.23-1.06.46-1.64.66s-1.16.46-1.78.63L52.25,13c-.63.18-1.28.27-1.91.41a16.89,16.89,0,0,1-1.86.32c-1.22.11-2.34.3-3.32.3L41.92,14l3.23-.22c1-.06,2.08-.3,3.28-.47a16.65,16.65,0,0,0,1.82-.41c.61-.17,1.25-.29,1.85-.5l1.81-.63c.6-.2,1.16-.48,1.71-.71s1.08-.48,1.58-.73l1.4-.7c.87-.45,1.6-.82,2.11-1.07l.8-.39a.54.54,0,0,1,.48,1h0Z"/><path class="cls-7" d="M20.49,10.51a4.5,4.5,0,0,0-2.54,1.23,7.19,7.19,0,0,0-2,2.54.05.05,0,0,0,.09.05,8.64,8.64,0,0,1,2.16-2.24c.71-.54,1.75-.75,2.36-1.37A.12.12,0,0,0,20.49,10.51Z"/><path class="cls-7" d="M21.45,11.3A4,4,0,0,0,18.67,13c0,.05,0,.13.09.09a6.93,6.93,0,0,1,2.87-1.21C22,11.85,21.86,11.22,21.45,11.3Z"/><path class="cls-7" d="M20.4,83.58c-.42-.54-1-.91-1.43-1.42a4.64,4.64,0,0,1-1.16-2.22s-.07,0-.08,0c-.17,1.51,1,3.63,2.62,3.73C20.41,83.7,20.43,83.62,20.4,83.58Z"/><path class="cls-7" d="M22.44,82.76c-.8-.71-1.92-1-2.58-1.89a.06.06,0,0,0-.12,0,2.74,2.74,0,0,0,2.64,2A.07.07,0,0,0,22.44,82.76Z"/><path class="cls-7" d="M87.91,75.53c-.48,1-.65,2-1.14,3S85.59,80.28,85,81.17a0,0,0,0,0,0,0c1.56-1.05,3.25-3.66,3.14-5.6C88.2,75.46,88,75.38,87.91,75.53Z"/><path class="cls-7" d="M87.06,73.95a.11.11,0,0,0-.2,0,4.37,4.37,0,0,0-.49,1.66,10.73,10.73,0,0,1-.51,1.75c-.07.17.19.25.28.12C86.78,76.54,87.48,75.07,87.06,73.95Z"/><ellipse class="cls-9" cx="74.41" cy="53.63" rx="5.1" ry="2.63"/><ellipse class="cls-9" cx="33.75" cy="53.63" rx="5.1" ry="2.63"/><path class="cls-10" d="M48,57.47c-.27-2.62,1.61-6.07,4.53-6,2.72.09,3.92,3.22,4.35,5.44"/><path class="cls-11" d="M76.76,4.1a11.07,11.07,0,0,0-5.33,6c-.49,1.44.26,4.87,1,6S68.9,20,68.9,20s5.5-.69,5.5,1.63c0,2.9,6.82,4.26,9.08,5.32.79.37,3-1.33,3-1.33l7,1.81,6.25-5.3"/><path class="cls-12" d="M72.1,8.57c-1.11,2.51-.57,5.23,0,7.94.54,1.63-1.63,2.72-3.17,3.44,1-.11,1.1-.69,0,0a18.11,18.11,0,0,1,3.17-.18c2.72,1.09,3.26,4.35,6,5.44,2.17,1.09,4.35,1.63,6,1.09,2.72-.54,6,.54,8.7,1.09,2.72,0,7.57-4.86,7.06-5.3-.74-1.29-9-3.27-9-3.27s0,3-1.21,2.73c-2-.48-4.74-1-5.27-.48-2,2-8.91-2.62-8.52-3.65C76.65,15.32,72.1,8.57,72.1,8.57Z"/><path class="cls-12" d="M93.14,23.9c-3.88.08-4.43-1.61-8.28-.44s-6.93.32-9.16-3.12c-2.08-3.22-2-7.26-4-10.43a16.1,16.1,0,0,0,.42,6.6c.47,1.41-1.09,2.41-2.51,3.13a2.22,2.22,0,0,0-.66.32,18.11,18.11,0,0,1,3.17-.18c2.72,1.09,3.26,4.35,6,5.44,2.17,1.09,4.35,1.63,6,1.09,2.72-.54,6,.54,8.7,1.09,1.36,0,5.5-4.11,6.66-5.3C99.29,22.09,93.25,23.9,93.14,23.9Z"/><polygon class="cls-7" points="69.09 20.46 64.52 21.91 64.69 21.74 63.96 23.4 63.83 23.69 63.59 23.5 62.2 22.39 62.38 22.42 59.93 23.31 62.23 22.07 62.32 22.02 62.42 22.09 63.88 23.12 63.52 23.22 64.15 21.52 64.19 21.41 64.32 21.36 68.71 19.45 69.09 20.46"/><polygon class="cls-7" points="93.81 26.92 94.88 29.06 94.73 28.94 96.02 29.48 96.18 29.55 96.17 29.7 96.12 31.25 96 31.07 98.51 32.19 95.87 31.43 95.75 31.39 95.75 31.25 95.69 29.7 95.85 29.93 94.53 29.49 94.46 29.46 94.38 29.37 92.89 27.51 93.81 26.92"/><polygon class="cls-7" points="65.61 21.52 62.63 19.09 62.77 19.13 58.66 18.6 62.8 18.6 62.86 18.6 62.94 18.65 66.23 20.62 65.61 21.52"/><path class="cls-7" d="M83.72,26.41l1,.48c.3.15.64.28,1,.43l1.18.47c1.63.63,3.3,1.23,3.3,1.23s-1.73-.34-3.46-.71L85.44,28c-.41-.1-.81-.18-1.12-.29l-1.06-.32Z"/><polygon class="cls-7" points="100.12 24.32 95.77 27.36 99.41 23.5 100.12 24.32"/><path class="cls-7" d="M72.22,5.88l-.64,1.05L70.92,8l-.68,1.26c-.94,1.72-1.77,3.52-1.77,3.52s.57-1.89,1.28-3.75l.51-1.38.5-1.16.49-1.13Z"/><polygon class="cls-7" points="101.29 24.81 98.51 26.39 100.6 23.97 101.29 24.81"/><path class="cls-5" d="M76.54,7.06a25.42,25.42,0,0,0,3.12,2.51,4.71,4.71,0,0,0,3.07,1.09s0,0,0,0c-.21-.91-1.45-1.6-2.13-2.17a35.05,35.05,0,0,0-3-2.65A.84.84,0,0,0,76.54,7.06Z"/><path class="cls-7" d="M68,50.39a.18.18,0,0,0,0,.36A.18.18,0,0,0,68,50.39Z"/><path class="cls-7" d="M69.76,50.08a.67.67,0,0,0,0,1.34A.67.67,0,0,0,69.76,50.08Z"/><path class="cls-7" d="M73.45,49.82a.34.34,0,0,0,0,.68A.34.34,0,0,0,73.45,49.82Z"/><path class="cls-7" d="M72.06,51.17a.52.52,0,0,0,0,1A.52.52,0,0,0,72.06,51.17Z"/><path class="cls-7" d="M75,51.51a.58.58,0,0,0,0,1.16A.58.58,0,0,0,75,51.51Z"/><path class="cls-7" d="M76.9,49.25a.46.46,0,0,0,0,.92A.46.46,0,0,0,76.9,49.25Z"/><path class="cls-7" d="M79.62,50a.36.36,0,0,0,0,.72A.36.36,0,0,0,79.62,50Z"/><path class="cls-7" d="M79.41,52.26a.15.15,0,0,0,0,.3A.15.15,0,0,0,79.41,52.26Z"/><path class="cls-7" d="M69.37,53.42a.32.32,0,0,0,0,.64A.32.32,0,0,0,69.37,53.42Z"/><path class="cls-7" d="M67.53,51.79a.29.29,0,0,0,0,.57A.29.29,0,0,0,67.53,51.79Z"/><path class="cls-7" d="M72.16,54a.08.08,0,0,0,0,.17A.08.08,0,0,0,72.16,54Z"/><path class="cls-7" d="M74.32,53.43a.15.15,0,0,0,0,.3A.15.15,0,0,0,74.32,53.43Z"/><path class="cls-7" d="M28.54,50.39a.18.18,0,0,0,0,.36A.18.18,0,0,0,28.54,50.39Z"/><path class="cls-7" d="M30.33,50.08a.67.67,0,0,0,0,1.34A.67.67,0,0,0,30.33,50.08Z"/><path class="cls-7" d="M34,49.82a.34.34,0,0,0,0,.68A.34.34,0,0,0,34,49.82Z"/><path class="cls-7" d="M32.62,51.17a.52.52,0,0,0,0,1A.52.52,0,0,0,32.62,51.17Z"/><path class="cls-7" d="M35.59,51.51a.58.58,0,0,0,0,1.16A.58.58,0,0,0,35.59,51.51Z"/><path class="cls-7" d="M37.46,49.25a.46.46,0,0,0,0,.92A.46.46,0,0,0,37.46,49.25Z"/><path class="cls-7" d="M40.18,50a.36.36,0,0,0,0,.72A.36.36,0,0,0,40.18,50Z"/><path class="cls-7" d="M40,52.26a.15.15,0,0,0,0,.3A.15.15,0,0,0,40,52.26Z"/><path class="cls-7" d="M29.93,53.42a.32.32,0,0,0,0,.64A.32.32,0,0,0,29.93,53.42Z"/><path class="cls-7" d="M28.09,51.79a.29.29,0,0,0,0,.57A.29.29,0,0,0,28.09,51.79Z"/><path class="cls-7" d="M32.72,54a.08.08,0,0,0,0,.17A.08.08,0,0,0,32.72,54Z"/><path class="cls-7" d="M34.88,53.43a.15.15,0,0,0,0,.3A.15.15,0,0,0,34.88,53.43Z"/><path class="cls-13" d="M82.56,53.77c.46,1.88-.85,4.65-3,5-1.87.28-3-1.38-2.32-3.2a10,10,0,0,0-.53-7.83S81.53,49.52,82.56,53.77Z"/><path class="cls-14" d="M79,55.18c.51-5-2.2-7.48-2.2-7.48a10,10,0,0,1,.53,7.83c-.65,1.82.45,3.47,2.32,3.2a2.83,2.83,0,0,0,1.08-.4A4.08,4.08,0,0,1,79,55.18Z"/><path class="cls-5" d="M81.14,52.78c.17,1.14-1,3.35-.71,3.75a.72.72,0,0,0,1.12.08A3,3,0,0,0,81.14,52.78Z"/><path class="cls-7" d="M91.52.66A.73.73,0,0,0,90.37.15a7,7,0,0,0-1.81,3.71,9.6,9.6,0,0,0-.37,4.95A.66.66,0,0,0,89.31,9a10,10,0,0,0,1.23-3.62C90.92,3.85,91.61,2.24,91.52.66Z"/><path class="cls-7" d="M97.72,5.23A10.25,10.25,0,0,0,95,7a26.63,26.63,0,0,0-2.69,2.37.41.41,0,0,0,.35.66,7.32,7.32,0,0,0,3-1.54A14.18,14.18,0,0,0,98.28,6,.5.5,0,0,0,97.72,5.23Z"/><path class="cls-7" d="M103,9.35c-2.69.38-5,1.81-7.78,1.9-.68,0-.8.87-.39,1.27,1.1,1.08,2.84.77,4.2.43a9.6,9.6,0,0,0,4.63-2.37A.76.76,0,0,0,103,9.35Z"/></g></g></g></svg>