<svg xmlns="http://www.w3.org/2000/svg" viewBox="0 0 104.71 144.01"><defs><style>.cls-1{isolation:isolate;}.cls-2{fill:#aaaaa9;}.cls-11,.cls-14,.cls-2,.cls-4,.cls-9{stroke:#002036;}.cls-14,.cls-2,.cls-9{stroke-linecap:round;}.cls-11,.cls-14,.cls-2,.cls-4{stroke-miterlimit:10;stroke-width:1.09px;}.cls-11,.cls-13,.cls-14,.cls-3{fill:#c6c6c6;}.cls-12,.cls-3,.cls-7{mix-blend-mode:multiply;}.cls-4{fill:#f3faff;}.cls-5,.cls-6{fill:#fff;}.cls-5{opacity:0.7;}.cls-7{fill:#e6f5fe;}.cls-8{fill:#002036;}.cls-9{fill:none;stroke-linejoin:round;stroke-width:1.63px;}.cls-10{fill:#f8c2c0;}</style></defs><title>Ресурс 3</title><g class="cls-1"><g id="Слой_2" data-name="Слой 2"><g id="Capa_1" data-name="Capa 1"><path class="cls-2" d="M93.51,82H12.92A105.78,105.78,0,0,0,30.69,88.1c1.32,6.47,11.65,55.37,23.54,55.37,11.55,0,20.68-46.42,22.14-55C87.43,85.75,93.51,82,93.51,82Z"/><path class="cls-3" d="M22,82c4,1.92,7.9,4.47,12.35,5.36a51.81,51.81,0,0,0,11.78,1c3.57-.11,7-1.19,10.61-.76a4.1,4.1,0,0,1,3.85,5.06c-.38,2.46-2.16,3.89-3.81,5.47a5.71,5.71,0,0,1,2.86,2.32c1.94,3.07-.8,5.93-2.23,8.46l.47.35c1.32,1,2.9,2.47,3.14,4.21a11.15,11.15,0,0,1-.5,5.33c-.53,1.68.24,2.85.83,4.47a15.78,15.78,0,0,1,.08,11.31,20.06,20.06,0,0,1-6.75,8.84c11.33-1.2,20.25-46.5,21.69-54.95C87.43,85.75,93.51,82,93.51,82Z"/><path class="cls-4" d="M76.05.54c-7.29,0-13.86,6.62-23.7,6.62S35.94.54,28.65.54C14.24.54-1.38,21.11.74,37.61c1,7.62,6.17,35.31,11.86,36.58,8.81,11.46,68.63,9.42,79.86,0C97.51,72.47,103.1,44.16,104,37.61,106.14,21.11,90.09.54,76.05.54Z"/><path class="cls-5" d="M33,73.15c6.73.54,7.29-5.7,21.2-6.52,8-.47,12.44,6.06,19.45,5.64S99,56.45,98.5,37.29c-.24-8.76-3.95-18.61-8.07-26.32A15,15,0,0,0,76.61,3.21c-7.06.26-13.36,5-19.35,8.2C49.2,15.8,43.27,8.48,36,6.51c-6.94-1.88-13.35,0-17.94,5.71-5.55,6.93-5.64,17.19-3.63,25.46C15.91,43.72,26.25,72.6,33,73.15Z"/><path class="cls-6" d="M51.85,15.76c4.77.51,8.73-.66,13.28-2s9.27-2,13.53.2c8.71,4.55,12.83,15.8,14.48,24.9,1,5.47,1.69,11,.86,16.58a37.71,37.71,0,0,1-1.11,4.94c3.44-7.87,5.81-16.22,5.62-23.14-.24-8.76-3.95-18.61-8.07-26.32A15,15,0,0,0,76.61,3.21c-7.06.26-13.36,5-19.35,8.2C49.2,15.8,43.27,8.48,36,6.51A21,21,0,0,0,33.51,6C38.19,11.15,45.12,15,51.85,15.76Z"/><path class="cls-7" d="M38.69,9.45a15.83,15.83,0,0,0,12.88,3C57,11.44,63,8.55,65.05,3.9c-3.76,1.64-7.83,3.26-12.7,3.26C43,7.16,36.63,1.22,29.78.6,32.77,3.53,35.41,6.79,38.69,9.45Z"/><path class="cls-7" d="M87.19,69.52C79.73,73.18,66,73.18,58.41,66.94c-1.92-1.57-8.64-2.19-13.63,1.13C38.87,72,22.46,72,18.28,69.8,11.95,66.44,10.8,58,.58,35.83,5.27,70.44,12,73.18,12,73.18a206.26,206.26,0,0,0,41.87,3.31c19.21-.44,38.61-2.27,38.61-2.27s4.71-1,9.87-27.45C97.59,56.45,90.92,67.69,87.19,69.52Z"/><circle class="cls-8" cx="34.35" cy="39.01" r="5.3"/><circle class="cls-6" cx="36.32" cy="40.57" r="1.56"/><circle class="cls-6" cx="34.76" cy="38" r="1.01"/><circle class="cls-8" cx="72.85" cy="39.01" r="5.3"/><circle class="cls-6" cx="70.88" cy="40.57" r="1.56"/><circle class="cls-6" cx="72.44" cy="38" r="1.01"/><path class="cls-9" d="M81.73,28.83a7.63,7.63,0,0,0-8.41-5.92"/><path class="cls-9" d="M24.07,28.83a7.63,7.63,0,0,1,8.41-5.92"/><path class="cls-8" d="M63,5.42l-.89.3c-.28.1-.64.2-1,.36l-1.27.52c-.94.37-2,.88-3.24,1.32-.6.22-1.22.48-1.86.69l-2,.61c-.65.23-1.33.33-2,.49s-1.3.33-1.94.4L47,10.34a13.85,13.85,0,0,1-1.65.17l-3.41.09,3.4-.26a13.73,13.73,0,0,0,1.63-.25l1.81-.32c.63-.1,1.25-.33,1.9-.49S52,9,52.58,8.69l1.9-.7c.62-.23,1.22-.52,1.8-.77,1.17-.5,2.22-1,3.16-1.48l1.29-.6c.38-.19.72-.29,1-.41l.87-.34a.54.54,0,1,1,.4,1h0Z"/><path class="cls-8" d="M20.49,7.08a4.49,4.49,0,0,0-2.54,1.23,7.19,7.19,0,0,0-2,2.54.05.05,0,0,0,.09.05,8.61,8.61,0,0,1,2.16-2.24c.71-.54,1.75-.75,2.36-1.37A.12.12,0,0,0,20.49,7.08Z"/><path class="cls-8" d="M21.45,7.86a3.94,3.94,0,0,0-2.79,1.75c0,.05,0,.13.09.09a7,7,0,0,1,2.87-1.21C22,8.41,21.86,7.79,21.45,7.86Z"/><path class="cls-8" d="M20.4,80.15c-.42-.54-1-.91-1.43-1.42a4.66,4.66,0,0,1-1.16-2.22s-.07,0-.07,0c-.17,1.51,1,3.63,2.62,3.73C20.41,80.26,20.43,80.19,20.4,80.15Z"/><path class="cls-8" d="M22.44,79.33c-.8-.71-1.92-1-2.58-1.89a.06.06,0,0,0-.12,0,2.74,2.74,0,0,0,2.64,2A.07.07,0,0,0,22.44,79.33Z"/><path class="cls-8" d="M87.91,72.09c-.48,1-.65,2-1.14,3S85.6,76.85,85,77.74c0,0,0,0,0,0,1.56-1.05,3.25-3.66,3.14-5.6C88.2,72,88,71.94,87.91,72.09Z"/><path class="cls-8" d="M87.06,70.51a.11.11,0,0,0-.2,0,4.37,4.37,0,0,0-.49,1.66,10.74,10.74,0,0,1-.51,1.75c-.07.17.19.25.28.12C86.78,73.11,87.48,71.64,87.06,70.51Z"/><path class="cls-8" d="M78,3.45a4.14,4.14,0,0,0-3.88-.1c-.05,0,0,.11,0,.11.58,0,1.15-.06,1.73-.07s1.38.19,2.08.24C78.09,3.63,78.1,3.5,78,3.45Z"/><path class="cls-8" d="M79.42,5.1a3.13,3.13,0,0,0-3.09-.46c-.12,0-.1.24,0,.23a3.81,3.81,0,0,1,2.21.43c.22.11.82.6.93.1A.31.31,0,0,0,79.42,5.1Z"/><ellipse class="cls-10" cx="74.41" cy="50.2" rx="5.1" ry="2.63"/><ellipse class="cls-10" cx="33.75" cy="50.2" rx="5.1" ry="2.63"/><path class="cls-8" d="M53.46,61.21a8.47,8.47,0,0,1-1.72.22c-.17,0-.83,0-.88.27s.42.65.74.74a3.57,3.57,0,0,0,2.17-.1A.59.59,0,0,0,53.46,61.21Z"/><path class="cls-8" d="M68.16,47.2a.18.18,0,0,0,0,.36A.18.18,0,0,0,68.16,47.2Z"/><path class="cls-8" d="M69.95,46.89a.67.67,0,0,0,0,1.35A.67.67,0,0,0,69.95,46.89Z"/><path class="cls-8" d="M73.63,46.63a.34.34,0,0,0,0,.68A.34.34,0,0,0,73.63,46.63Z"/><path class="cls-8" d="M72.24,48a.52.52,0,0,0,0,1A.52.52,0,0,0,72.24,48Z"/><path class="cls-8" d="M75.2,48.32a.58.58,0,0,0,0,1.16A.58.58,0,0,0,75.2,48.32Z"/><path class="cls-8" d="M77.07,46.06a.46.46,0,0,0,0,.92A.46.46,0,0,0,77.07,46.06Z"/><path class="cls-8" d="M79.8,46.77a.36.36,0,0,0,0,.72A.36.36,0,0,0,79.8,46.77Z"/><path class="cls-8" d="M79.59,49.07a.15.15,0,0,0,0,.29A.15.15,0,0,0,79.59,49.07Z"/><path class="cls-8" d="M69.55,50.23a.32.32,0,0,0,0,.63A.32.32,0,0,0,69.55,50.23Z"/><path class="cls-8" d="M67.71,48.6a.29.29,0,0,0,0,.57A.29.29,0,0,0,67.71,48.6Z"/><path class="cls-8" d="M72.34,50.78a.08.08,0,0,0,0,.17A.08.08,0,0,0,72.34,50.78Z"/><path class="cls-8" d="M74.5,50.24a.15.15,0,0,0,0,.3A.15.15,0,0,0,74.5,50.24Z"/><path class="cls-8" d="M28.72,47.2a.18.18,0,0,0,0,.36A.18.18,0,0,0,28.72,47.2Z"/><path class="cls-8" d="M30.51,46.89a.67.67,0,0,0,0,1.35A.67.67,0,0,0,30.51,46.89Z"/><path class="cls-8" d="M34.19,46.63a.34.34,0,0,0,0,.68A.34.34,0,0,0,34.19,46.63Z"/><path class="cls-8" d="M32.8,48a.52.52,0,0,0,0,1A.52.52,0,0,0,32.8,48Z"/><path class="cls-8" d="M35.77,48.32a.58.58,0,0,0,0,1.16A.58.58,0,0,0,35.77,48.32Z"/><path class="cls-8" d="M37.64,46.06a.46.46,0,0,0,0,.92A.46.46,0,0,0,37.64,46.06Z"/><path class="cls-8" d="M40.36,46.77a.36.36,0,0,0,0,.72A.36.36,0,0,0,40.36,46.77Z"/><path class="cls-8" d="M40.15,49.07a.15.15,0,0,0,0,.29A.15.15,0,0,0,40.15,49.07Z"/><path class="cls-8" d="M30.11,50.23a.32.32,0,0,0,0,.63A.32.32,0,0,0,30.11,50.23Z"/><path class="cls-8" d="M28.27,48.6a.29.29,0,0,0,0,.57A.29.29,0,0,0,28.27,48.6Z"/><path class="cls-8" d="M32.9,50.78a.08.08,0,0,0,0,.17A.08.08,0,0,0,32.9,50.78Z"/><path class="cls-8" d="M35.06,50.24a.15.15,0,0,0,0,.3A.15.15,0,0,0,35.06,50.24Z"/><path class="cls-11" d="M95.88,77.95a4.18,4.18,0,0,1-3.62,4.65,381,381,0,0,1-80.46,0,4.18,4.18,0,0,1-3.62-4.65h0a4.09,4.09,0,0,1,4.41-3.76,373.45,373.45,0,0,0,78.87,0,4.09,4.09,0,0,1,4.41,3.76Z"/><g class="cls-12"><path class="cls-13" d="M95.7,77.06A31,31,0,0,1,90,78.46c-1.46.37-3,.68-4.56.94a262.57,262.57,0,0,1-28.08,2.76,182.67,182.67,0,0,1-29.93-.62c-4.27-.48-8.57-1-12.8-1.73a22.62,22.62,0,0,1-6.44-2s0,.1,0,.15A4.18,4.18,0,0,0,11.8,82.6a381,381,0,0,0,80.46,0,4.18,4.18,0,0,0,3.62-4.65A4.51,4.51,0,0,0,95.7,77.06Z"/></g><path class="cls-6" d="M79.54,76.36C78,75.9,67.61,77.59,56.93,77.77c-14.44.25-30.38-1.16-33.17-.9a.08.08,0,0,0,0,.15c9.54,1.15,19,2.63,28.6,2.63,12.18,0,25-1.31,27.18-1.9A.73.73,0,0,0,79.54,76.36Z"/><path class="cls-14" d="M74.64,97.72C68,102,41.92,107.22,34.91,106c-6.11-1.09-8.71-8.9-2.11-8.38,12,.93,37.14-5.41,43.57-9.1C81.89,85.33,79.53,94.6,74.64,97.72Z"/><path class="cls-3" d="M72.46,97.15c-4.14,1.26-8.51,1.41-12.76,2.12-5.94,1-11.79,2.87-17.76,3.55a33,33,0,0,1-8.18-.09c-1.44-.19-3-.78-4.42-.91A7.63,7.63,0,0,0,34.91,106c7,1.24,33.08-4,39.73-8.26a10.84,10.84,0,0,0,3.13-3.24A17.37,17.37,0,0,1,72.46,97.15Z"/><path class="cls-14" d="M70.6,113.56c-3.95,3.9-21.82,9.61-31.28,8-6.12-1-9.42-10.77-3-9.11,8.27,2.14,29.8-4.84,36.44-8.91C78.16,100.21,74.72,109.49,70.6,113.56Z"/><path class="cls-3" d="M57.32,116c-7.87,1.91-16.36,4.63-23.89.73a8.48,8.48,0,0,0,5.89,4.79c9.46,1.61,27.34-4.09,31.28-8a20.27,20.27,0,0,0,3.67-5.31A43.23,43.23,0,0,1,57.32,116Z"/><path class="cls-14" d="M66,130.12c-4.73,3.56-14,5.3-20.45,5.3-4.85,0-7.39-7.34-3.13-6.52,6.89,1.34,20.36-4.1,25.39-6.62C72,120.2,69,127.88,66,130.12Z"/><path class="cls-3" d="M40.28,130.76a5.66,5.66,0,0,0,5.27,4.66c6.48,0,15.72-1.74,20.45-5.3a12.27,12.27,0,0,0,3.76-6.31C61.23,130,50.16,134.11,40.28,130.76Z"/><path class="cls-6" d="M72.7,91.5c-1.87-.17-3.59.8-5.25,1.56A49.92,49.92,0,0,1,58.85,96c-5.64,1.42-11.33,2.59-17,3.93-.05,0,0,.11,0,.1a140.72,140.72,0,0,0,16.36-2.66,45,45,0,0,0,8-2.44,59.93,59.93,0,0,0,6.57-2.83A.32.32,0,0,0,72.7,91.5Z"/><path class="cls-6" d="M67.26,107.21c-2,.08-3.75,1-5.57,1.71-2.36,1-4.73,1.88-7.13,2.74-4.57,1.65-9.12,2.14-13.82,3.14a.22.22,0,0,0,0,.42c4.32.78,9.19-.61,13.3-1.86,2.43-.74,4.8-1.67,7.17-2.58,2.15-.83,4.51-1.47,6.31-2.93A.37.37,0,0,0,67.26,107.21Z"/><path class="cls-6" d="M60.55,127.07c-2.23-.08-4.42.76-6.51,1.46a64.68,64.68,0,0,1-8,2.05,0,0,0,0,0,0,0,14.64,14.64,0,0,0,6.5-.58c2.69-.69,5.49-1.26,8.13-2.09A.45.45,0,0,0,60.55,127.07Z"/><path class="cls-6" d="M54.39,140.46a3.08,3.08,0,0,1-2.18-1A6.79,6.79,0,0,0,50.33,138a.41.41,0,0,0-.5.5c.68,1.89,2.64,3.91,4.78,3.59C55.58,141.95,55.28,140.51,54.39,140.46Z"/><path class="cls-6" d="M54,124.36c-1.73-.59-3.92.25-5.69.47A10.39,10.39,0,0,1,43,123.76c-.12-.05-.19.1-.15.2.87,2,2.32,2.64,4.42,2.76s5.19-.21,6.89-1.18A.65.65,0,0,0,54,124.36Z"/><path class="cls-6" d="M45,109.68c-1.92-.35-3.87.28-5.8-.24-.21-.06-1.51-1.38-1.71-1.16-.43.49.28,2,.78,2.25a10.58,10.58,0,0,0,6.72.77A.84.84,0,0,0,45,109.68Z"/><path class="cls-6" d="M37.39,93.34a3.06,3.06,0,0,1-2.78-2.16,8.4,8.4,0,0,0-1.51-3.12c-.23-.22-.71-.08-.67.28a14.35,14.35,0,0,0,1.21,4.31A4.23,4.23,0,0,0,37.17,95C38.1,95.1,38.32,93.47,37.39,93.34Z"/><ellipse class="cls-8" cx="52.83" cy="53.47" rx="3.64" ry="5.9"/></g></g></g></svg>