<svg xmlns="http://www.w3.org/2000/svg" viewBox="0 0 104.71 112.01"><defs><style>.cls-1{isolation:isolate;}.cls-2{fill:#f3faff;}.cls-2,.cls-7,.cls-8{stroke:#002036;}.cls-2,.cls-8{stroke-miterlimit:10;stroke-width:1.09px;}.cls-3,.cls-4{fill:#fff;}.cls-3{opacity:0.7;}.cls-5{fill:#e6f5fe;mix-blend-mode:multiply;}.cls-6{fill:#002036;}.cls-7,.cls-8{fill:none;stroke-linecap:round;}.cls-7{stroke-linejoin:round;stroke-width:1.63px;}.cls-9{fill:#f8c2c0;}</style></defs><title>Ресурс 5</title><g class="cls-1"><g id="Слой_2" data-name="Слой 2"><g id="Capa_1" data-name="Capa 1"><path class="cls-2" d="M76.05.54c-7.29,0-13.86,6.61-23.7,6.61S35.94.54,28.65.54C14.24.54-1.38,21.11.74,37.61c2.36,18.4,22.84,73.86,37,73.86,7,0,6.94-13.86,10.51-28.73,1.63-6.8,4.89-7.61,6.52.54C57.8,98.55,60.46,111.47,67,111.47c14.14,0,35-59.07,37-73.86C106.14,21.11,90.09.54,76.05.54Z"/><path class="cls-3" d="M33.07,85.81c6.73.54,5.39-19.76,19.3-20.58,8-.47,11.52,3.5,12.7,9.66,1.25,6.52.78,12.61,7.79,12.19S99,56.45,98.5,37.29c-.24-8.76-3.95-18.61-8.07-26.32A15,15,0,0,0,76.61,3.21c-7.06.26-13.36,5-19.35,8.21C49.2,15.8,43.28,8.48,36,6.51c-6.94-1.88-13.35,0-17.94,5.71-5.55,6.93-5.64,17.19-3.63,25.46C15.91,43.72,26.34,85.27,33.07,85.81Z"/><path class="cls-4" d="M51.85,15.76c4.77.51,8.73-.66,13.28-2s9.27-2,13.53.2c8.71,4.55,12.83,15.8,14.47,24.9,1,5.47,1.68,11,.86,16.58a37.77,37.77,0,0,1-1.11,4.94c3.44-7.87,5.81-16.23,5.62-23.14-.24-8.76-3.95-18.61-8.07-26.32A15,15,0,0,0,76.61,3.21c-7.06.26-13.36,5-19.35,8.21C49.2,15.8,43.28,8.48,36,6.51A21.05,21.05,0,0,0,33.51,6C38.19,11.15,45.12,15,51.85,15.76Z"/><path class="cls-5" d="M38.69,9.45a15.82,15.82,0,0,0,12.88,3C57,11.44,63,8.55,65.05,3.9c-3.76,1.64-7.83,3.26-12.7,3.26C43,7.16,36.63,1.22,29.78.6,32.77,3.53,35.41,6.79,38.69,9.45Z"/><path class="cls-5" d="M82.79,83.46c-2.66,4-9.84,9-15.38,7.47s-5.9-9.11-6.94-13.57c-.49-2.1-.81-5.8-3.08-6.8a8.31,8.31,0,0,0-7.28.41,18.54,18.54,0,0,0-8.51,12.5c-.7,4.6-1.54,11.13-7.48,11.25-3.12.06-4.72-3.36-6.55-5.48-3-3.42-16.19-26.8-26.41-48.95,3.75,20.56,23,71.18,36.55,71.18,7,0,6.94-13.86,10.51-28.73,1.63-6.8,4.89-7.61,6.52.54C57.8,98.55,60.46,111.47,67,111.47c10.21,0,24-30.84,31.52-53.53C93.48,68.23,88.62,74.79,82.79,83.46Z"/><circle class="cls-6" cx="34.35" cy="39.01" r="5.3"/><circle class="cls-4" cx="36.32" cy="40.57" r="1.56"/><circle class="cls-4" cx="34.76" cy="38" r="1.01"/><circle class="cls-6" cx="72.85" cy="39.01" r="5.3"/><circle class="cls-4" cx="70.88" cy="40.57" r="1.56"/><circle class="cls-4" cx="72.44" cy="38" r="1.01"/><path class="cls-7" d="M79.1,29.74c-1.27-5-9.67-5.07-10.24-.54"/><path class="cls-7" d="M28.63,29.74c1.27-5,9.67-5.07,10.24-.54"/><path class="cls-6" d="M63,5.42l-.89.3c-.28.1-.64.2-1,.36l-1.27.52c-.94.37-2,.88-3.24,1.32-.6.22-1.22.48-1.86.69l-2,.61c-.65.23-1.34.32-2,.49s-1.3.33-1.94.4L47,10.34a13.87,13.87,0,0,1-1.65.17l-3.41.09,3.4-.26a13.8,13.8,0,0,0,1.63-.25l1.81-.32c.63-.1,1.25-.33,1.9-.49S52,9,52.58,8.69l1.9-.7c.62-.23,1.22-.52,1.8-.77,1.17-.5,2.22-1,3.16-1.48l1.29-.6c.38-.19.72-.29,1-.41l.87-.34a.54.54,0,1,1,.4,1h0Z"/><path class="cls-6" d="M20.49,7.08a4.49,4.49,0,0,0-2.54,1.23,7.19,7.19,0,0,0-2,2.54.05.05,0,0,0,.09.05,8.64,8.64,0,0,1,2.16-2.24c.71-.54,1.75-.75,2.36-1.37A.12.12,0,0,0,20.49,7.08Z"/><path class="cls-6" d="M21.45,7.86a4,4,0,0,0-2.79,1.75c0,.05,0,.13.09.09a6.94,6.94,0,0,1,2.87-1.21C22,8.41,21.86,7.79,21.45,7.86Z"/><path class="cls-6" d="M20.4,80.15c-.42-.54-1-.91-1.43-1.42a4.66,4.66,0,0,1-1.16-2.22s-.07,0-.07,0c-.17,1.51,1,3.63,2.62,3.73C20.41,80.26,20.43,80.19,20.4,80.15Z"/><path class="cls-6" d="M22.44,79.33c-.8-.71-1.92-1-2.58-1.89a.06.06,0,0,0-.12,0,2.74,2.74,0,0,0,2.64,2A.07.07,0,0,0,22.44,79.33Z"/><path class="cls-6" d="M87.91,72.09c-.48,1-.65,2-1.14,3S85.59,76.85,85,77.74a0,0,0,0,0,0,0c1.56-1.05,3.25-3.66,3.14-5.6C88.2,72,88,71.94,87.91,72.09Z"/><path class="cls-6" d="M87.06,70.51a.11.11,0,0,0-.2,0,4.36,4.36,0,0,0-.49,1.66,10.68,10.68,0,0,1-.51,1.75c-.07.17.19.25.28.12C86.78,73.11,87.48,71.64,87.06,70.51Z"/><path class="cls-6" d="M78,3.45a4.14,4.14,0,0,0-3.88-.1c-.05,0,0,.11,0,.11.58,0,1.15-.06,1.73-.07s1.38.19,2.08.25C78.09,3.63,78.1,3.5,78,3.45Z"/><path class="cls-6" d="M79.42,5.1a3.12,3.12,0,0,0-3.09-.46c-.12,0-.1.24,0,.23a3.8,3.8,0,0,1,2.21.43c.21.11.82.59.93.1A.31.31,0,0,0,79.42,5.1Z"/><path class="cls-8" d="M45.56,52.83c0,9.11,13.59,9.11,13.59,0"/><ellipse class="cls-9" cx="74.41" cy="50.2" rx="5.1" ry="2.63"/><ellipse class="cls-9" cx="33.75" cy="50.2" rx="5.1" ry="2.63"/><path class="cls-8" d="M58.68,51.74a2.57,2.57,0,0,0,1.81,1.81"/><path class="cls-6" d="M53.46,61.21a8.56,8.56,0,0,1-1.72.22c-.17,0-.83,0-.88.27s.42.66.74.74a3.57,3.57,0,0,0,2.17-.1A.59.59,0,0,0,53.46,61.21Z"/><path class="cls-6" d="M68.16,47.2a.18.18,0,0,0,0,.36A.18.18,0,0,0,68.16,47.2Z"/><path class="cls-6" d="M69.94,46.89a.67.67,0,0,0,0,1.35A.67.67,0,0,0,69.94,46.89Z"/><path class="cls-6" d="M73.63,46.63a.34.34,0,0,0,0,.68A.34.34,0,0,0,73.63,46.63Z"/><path class="cls-6" d="M72.24,48a.52.52,0,0,0,0,1A.52.52,0,0,0,72.24,48Z"/><path class="cls-6" d="M75.2,48.33a.58.58,0,0,0,0,1.16A.58.58,0,0,0,75.2,48.33Z"/><path class="cls-6" d="M77.08,46.06a.46.46,0,0,0,0,.92A.46.46,0,0,0,77.08,46.06Z"/><path class="cls-6" d="M79.8,46.77a.36.36,0,0,0,0,.72A.36.36,0,0,0,79.8,46.77Z"/><path class="cls-6" d="M79.59,49.07a.15.15,0,0,0,0,.29A.15.15,0,0,0,79.59,49.07Z"/><path class="cls-6" d="M69.55,50.23a.32.32,0,0,0,0,.63A.32.32,0,0,0,69.55,50.23Z"/><path class="cls-6" d="M67.71,48.6a.29.29,0,0,0,0,.57A.29.29,0,0,0,67.71,48.6Z"/><path class="cls-6" d="M72.34,50.78a.08.08,0,0,0,0,.17A.08.08,0,0,0,72.34,50.78Z"/><path class="cls-6" d="M74.5,50.24a.15.15,0,0,0,0,.3A.15.15,0,0,0,74.5,50.24Z"/><path class="cls-6" d="M28.72,47.2a.18.18,0,0,0,0,.36A.18.18,0,0,0,28.72,47.2Z"/><path class="cls-6" d="M30.51,46.89a.67.67,0,0,0,0,1.35A.67.67,0,0,0,30.51,46.89Z"/><path class="cls-6" d="M34.19,46.63a.34.34,0,0,0,0,.68A.34.34,0,0,0,34.19,46.63Z"/><path class="cls-6" d="M32.8,48a.52.52,0,0,0,0,1A.52.52,0,0,0,32.8,48Z"/><path class="cls-6" d="M35.77,48.33a.58.58,0,0,0,0,1.16A.58.58,0,0,0,35.77,48.33Z"/><path class="cls-6" d="M37.64,46.06a.46.46,0,0,0,0,.92A.46.46,0,0,0,37.64,46.06Z"/><path class="cls-6" d="M40.36,46.77a.36.36,0,0,0,0,.72A.36.36,0,0,0,40.36,46.77Z"/><path class="cls-6" d="M40.15,49.07a.15.15,0,0,0,0,.29A.15.15,0,0,0,40.15,49.07Z"/><path class="cls-6" d="M30.11,50.23a.32.32,0,0,0,0,.63A.32.32,0,0,0,30.11,50.23Z"/><path class="cls-6" d="M28.27,48.6a.29.29,0,0,0,0,.57A.29.29,0,0,0,28.27,48.6Z"/><path class="cls-6" d="M32.9,50.78a.08.08,0,0,0,0,.17A.08.08,0,0,0,32.9,50.78Z"/><path class="cls-6" d="M35.06,50.24a.15.15,0,0,0,0,.3A.15.15,0,0,0,35.06,50.24Z"/></g></g></g></svg>