<svg xmlns="http://www.w3.org/2000/svg" viewBox="0 0 61.68 75.1"><defs><style>.cls-1{fill:#f5efe4;}.cls-2{fill:#f1d5d6;}.cls-3{fill:none;stroke:#8b1451;stroke-linecap:round;stroke-linejoin:round;}</style></defs><title>img2</title><g id="Слой_2" data-name="Слой 2"><g id="Capa_1" data-name="Capa 1"><path class="cls-1" d="M31,47.72h.51c.31,0,.62,0,.92,0,11.46.76,10,23,10,23,.51,5.59,5.29,3.43,5.29,3.43,11.46-8.2,8.56-35.93,8.56-35.93,8.56-12.55,3.42-26.81,3.42-26.81C57.36,5.49,52.91,1.07,46.38.53c-5.61-.46-10.23,4-15.54,4.33C25.52,4.56,20.91.08,15.3.53c-6.54.53-11,5-13.27,10.92,0,0-5.13,14.26,3.42,26.81,0,0-2.9,27.73,8.55,35.93,0,0,4.78,2.16,5.29-3.43,0,0-1.48-22.26,10-23C29.84,47.71,30.41,47.72,31,47.72Z"/><path class="cls-2" d="M24,50.2c-.21.1-.42.21-.62.33-3.28,1.94-3.72,5.34-4.57,8.74-.48,1.92-2.12,8.77-5.3,5.65-1.86-1.82-2.34-4.8-2.71-7.26A75.09,75.09,0,0,1,10,49.54C9.76,43.91,10.63,38,15,34c-1-.72-2.25-1.19-3.24-2a8.2,8.2,0,0,1-2.39-3.41,24,24,0,0,1-2-9.78c.19-4.93,1.8-10.3,7-11.92s9.78.43,14.54,2c3.07,1,6.49,1.94,9.75,1.37,2.27-.4,4.75-1.43,5-3.92-2.16,1.13-5,1-7.31.58a12.39,12.39,0,0,1-5.54-2.14C25.5,4.54,20.9.08,15.3.53c-6.54.53-11,5-13.27,10.92,0,0-5.13,14.26,3.42,26.81,0,0-2.9,27.73,8.55,35.93,0,0,4.78,2.16,5.29-3.43C19.29,70.77,18.32,56.16,24,50.2Z"/><path class="cls-2" d="M60.84,26.32a10.31,10.31,0,0,1-.46,1A15.63,15.63,0,0,1,54.84,33a54.29,54.29,0,0,1-5,2.73l-1.18.58c-.38.19,0,.32.28.73a17.83,17.83,0,0,1,1.39,2.42,27.63,27.63,0,0,1,2.2,10.26c.19,3.77.51,7.77-.25,11.49a19.81,19.81,0,0,1-1.73,5.06,6.45,6.45,0,0,1-2,2.68,2.46,2.46,0,0,1-2.82.13,4.2,4.2,0,0,1-1-2.86c-.31-2.43-.78-4.9-1.33-7.29S42,54,40.4,52.13a6.65,6.65,0,0,0-2.76-1.91c5.71,6,4.74,20.55,4.74,20.55.51,5.59,5.29,3.43,5.29,3.43,11.46-8.2,8.56-35.93,8.56-35.93A28.29,28.29,0,0,0,60.84,26.32Z"/><path class="cls-3" d="M31,47.72h.51c.31,0,.62,0,.92,0,11.46.76,10,23,10,23,.51,5.59,5.29,3.43,5.29,3.43,11.46-8.2,8.56-35.93,8.56-35.93,8.56-12.55,3.42-26.81,3.42-26.81C57.36,5.49,52.91,1.07,46.38.53c-5.61-.46-10.23,4-15.54,4.33C25.52,4.56,20.91.08,15.3.53c-6.54.53-11,5-13.27,10.92,0,0-5.13,14.26,3.42,26.81,0,0-2.9,27.73,8.55,35.93,0,0,4.78,2.16,5.29-3.43,0,0-1.48-22.26,10-23C29.84,47.71,30.41,47.72,31,47.72Z"/><path class="cls-3" d="M27.58,4.21S41.21,9,43.6,5.72"/></g></g></svg>