<svg xmlns="http://www.w3.org/2000/svg" viewBox="0 0 71.31 72.7"><defs><style>.cls-1{fill:#f5efe4;}.cls-2{fill:#f39fa1;}.cls-3{fill:#e74645;}.cls-4{fill:#f1d5d6;}.cls-5{fill:none;stroke:#8b1451;stroke-linecap:round;stroke-linejoin:round;}</style></defs><title>img3</title><g id="Слой_2" data-name="Слой 2"><g id="Capa_1" data-name="Capa 1"><path class="cls-1" d="M30,46.19h.49c.3,0,.6,0,.89,0C42.46,46.94,41,68.49,41,68.49c.49,5.41,5.12,3.31,5.12,3.31C57.23,63.86,54.42,37,54.42,37c8.28-12.14,3.31-25.94,3.31-25.94C55.51,5.33,51.21,1,44.89.53c-5.43-.44-9.89,3.9-15,4.19-5.14-.29-9.61-4.63-15-4.19C8.5,1,4.2,5.33,2,11.09c0,0-5,13.8,3.31,25.94,0,0-2.81,26.83,8.28,34.77,0,0,4.62,2.09,5.12-3.31,0,0-1.43-21.54,9.65-22.28C28.88,46.17,29.44,46.18,30,46.19Z"/><path class="cls-2" d="M47.3,31.59a8.52,8.52,0,0,0-6.08,4.77,12.06,12.06,0,0,0-.47,8.18,14.3,14.3,0,0,0,10.72,9.38,13.81,13.81,0,0,0,2.67.27A82.67,82.67,0,0,0,54.42,37a26.68,26.68,0,0,0,2.73-5.13A20.73,20.73,0,0,0,47.3,31.59Z"/><path class="cls-3" d="M49.62,35.26c-2.8.9-4.68,3.42-4,6.46a6.05,6.05,0,0,0,4.72,4.64,4.68,4.68,0,0,0,4.36-1.58c0-4.53-.32-7.74-.32-7.74.3-.44.58-.87.84-1.31C53.77,34.63,51.31,34.72,49.62,35.26Z"/><path class="cls-4" d="M23.28,48.59c-.2.1-.4.2-.6.31-3.17,1.87-3.6,5.16-4.42,8.45-.46,1.86-2.05,8.48-5.13,5.47-1.8-1.76-2.27-4.64-2.62-7a72.45,72.45,0,0,1-.83-7.86c-.22-5.45.61-11.18,4.83-15-1-.69-2.18-1.15-3.13-1.92a7.93,7.93,0,0,1-2.31-3.29,23.29,23.29,0,0,1-1.89-9.46C7.36,13.5,8.92,8.31,14,6.73s9.46.42,14.07,2c3,1,6.28,1.88,9.44,1.33,2.2-.38,4.59-1.39,4.8-3.8-2.09,1.09-4.85,1-7.08.56a12,12,0,0,1-5.36-2.07c-5.13-.31-9.59-4.63-15-4.18C8.5,1,4.2,5.33,2,11.09c0,0-5,13.8,3.31,25.94,0,0-2.81,26.83,8.28,34.77,0,0,4.62,2.09,5.12-3.31C18.68,68.49,17.74,54.35,23.28,48.59Z"/><path class="cls-5" d="M30,46.19h.49c.3,0,.6,0,.89,0C42.46,46.94,41,68.49,41,68.49c.49,5.41,5.12,3.31,5.12,3.31C57.23,63.86,54.42,37,54.42,37c8.28-12.14,3.31-25.94,3.31-25.94C55.51,5.33,51.21,1,44.89.53c-5.43-.44-9.89,3.9-15,4.19-5.14-.29-9.61-4.63-15-4.19C8.5,1,4.2,5.33,2,11.09c0,0-5,13.8,3.31,25.94,0,0-2.81,26.83,8.28,34.77,0,0,4.62,2.09,5.12-3.31,0,0-1.43-21.54,9.65-22.28C28.88,46.17,29.44,46.18,30,46.19Z"/><path class="cls-5" d="M26.71,4.09s13.18,4.68,15.5,1.46"/><path class="cls-5" d="M57.68,46.21c1.73,1.89,6.78,6.24,8.52,8"/><path class="cls-5" d="M58.46,42.9c2.52,0,7.73,0,12.35-.24"/><path class="cls-5" d="M58.46,39.59a101.77,101.77,0,0,0,9.75-7.44"/></g></g></svg>