<svg xmlns="http://www.w3.org/2000/svg" viewBox="0 0 54.24 80.58"><defs><style>.cls-1{isolation:isolate;}.cls-2{fill:#cfe1eb;}.cls-3{fill:#a5becd;}.cls-4{fill:#c6c6c6;mix-blend-mode:multiply;}.cls-5{fill:none;stroke:#8b1451;stroke-linecap:round;stroke-linejoin:round;}.cls-6{fill:#f5efe4;}.cls-7{fill:#f1d5d6;}</style></defs><title>img4</title><g class="cls-1"><g id="Слой_2" data-name="Слой 2"><g id="Capa_1" data-name="Capa 1"><rect class="cls-2" x="10.63" y="33.01" width="32.99" height="10.86"/><path class="cls-3" d="M35.33,55.24l-4-1.61a1.64,1.64,0,0,1-.57-2.07A2,2,0,0,1,32,50.79,6.77,6.77,0,0,0,34.29,50a3.38,3.38,0,0,0,.91-1c.21-.41.05-.78.05-1.19V43.87H19v3.86c0,.4-.16.78,0,1.19a3.36,3.36,0,0,0,.9,1,6.77,6.77,0,0,0,2.29.83,2,2,0,0,1,1.24.77,1.64,1.64,0,0,1-.57,2.07l-4,1.61a1.5,1.5,0,0,0-.77,2,2.38,2.38,0,0,0,.72.95,5.89,5.89,0,0,0,1.48.53l1.48.51,1.13.38a1.71,1.71,0,0,1,1.18.79A2.67,2.67,0,0,1,24.47,62a2.54,2.54,0,0,1-1.55,1.89,15.26,15.26,0,0,0-3,1.67,1.71,1.71,0,0,0-.27,2.26c.69.91,2.51,1,3.54,1.52a2.14,2.14,0,0,1,1.11,1.42A1.81,1.81,0,0,1,24,72c-.38.67-1.28.89-2,1.16-1.08.4-2.35.55-2.46,1.7-.09.87.7,1.53,1.45,2a24.4,24.4,0,0,0,2.2,1.32c.74.39,1.46.79,2.21,1.18a6.2,6.2,0,0,0,1.54.65v0a1.71,1.71,0,0,0,.2,0,1.63,1.63,0,0,0,.2,0v0a6.2,6.2,0,0,0,1.54-.65c.74-.38,1.47-.78,2.21-1.18a24.58,24.58,0,0,0,2.2-1.32c.75-.51,1.54-1.17,1.45-2-.12-1.15-1.38-1.3-2.46-1.7-.76-.28-1.66-.49-2-1.16A1.82,1.82,0,0,1,30,70.75a2.14,2.14,0,0,1,1.11-1.42c1-.56,2.85-.61,3.54-1.52a1.71,1.71,0,0,0-.27-2.26,15.28,15.28,0,0,0-3-1.67A2.54,2.54,0,0,1,29.77,62a2.67,2.67,0,0,1,.34-1.65,1.71,1.71,0,0,1,1.18-.79l1.13-.38,1.48-.51a5.89,5.89,0,0,0,1.47-.53,2.38,2.38,0,0,0,.72-.95A1.5,1.5,0,0,0,35.33,55.24Z"/><path class="cls-4" d="M27.33,43.87H19v3.86c0,.4-.16.78,0,1.19a3.36,3.36,0,0,0,.9,1,6.77,6.77,0,0,0,2.29.83,2,2,0,0,1,1.24.77,1.64,1.64,0,0,1-.57,2.07l-4,1.61a1.5,1.5,0,0,0-.77,2,2.38,2.38,0,0,0,.72.95,5.89,5.89,0,0,0,1.48.53l1.48.51,1.13.38a1.71,1.71,0,0,1,1.18.79A2.67,2.67,0,0,1,24.47,62a2.54,2.54,0,0,1-1.55,1.89,15.26,15.26,0,0,0-3,1.67,1.71,1.71,0,0,0-.27,2.26c.69.91,2.51,1,3.54,1.52a2.14,2.14,0,0,1,1.11,1.42A1.81,1.81,0,0,1,24,72c-.38.67-1.28.89-2,1.16-1.08.4-2.35.55-2.46,1.7-.09.87.7,1.53,1.45,2a24.4,24.4,0,0,0,2.2,1.32c.74.39,1.46.79,2.21,1.18a6.2,6.2,0,0,0,1.54.65v0a1.71,1.71,0,0,0,.2,0,1.63,1.63,0,0,0,.2,0v0h0Z"/><path class="cls-5" d="M35.33,55.24l-4-1.61a1.64,1.64,0,0,1-.57-2.07A2,2,0,0,1,32,50.79,6.77,6.77,0,0,0,34.29,50a3.38,3.38,0,0,0,.91-1c.21-.41.05-.78.05-1.19V43.87H19v3.86c0,.4-.16.78,0,1.19a3.36,3.36,0,0,0,.9,1,6.77,6.77,0,0,0,2.29.83,2,2,0,0,1,1.24.77,1.64,1.64,0,0,1-.57,2.07l-4,1.61a1.5,1.5,0,0,0-.77,2,2.38,2.38,0,0,0,.72.95,5.89,5.89,0,0,0,1.48.53l1.48.51,1.13.38a1.71,1.71,0,0,1,1.18.79A2.67,2.67,0,0,1,24.47,62a2.54,2.54,0,0,1-1.55,1.89,15.26,15.26,0,0,0-3,1.67,1.71,1.71,0,0,0-.27,2.26c.69.91,2.51,1,3.54,1.52a2.14,2.14,0,0,1,1.11,1.42A1.81,1.81,0,0,1,24,72c-.38.67-1.28.89-2,1.16-1.08.4-2.35.55-2.46,1.7-.09.87.7,1.53,1.45,2a24.4,24.4,0,0,0,2.2,1.32c.74.39,1.46.79,2.21,1.18a6.2,6.2,0,0,0,1.54.65v0a1.71,1.71,0,0,0,.2,0,1.63,1.63,0,0,0,.2,0v0a6.2,6.2,0,0,0,1.54-.65c.74-.38,1.47-.78,2.21-1.18a24.58,24.58,0,0,0,2.2-1.32c.75-.51,1.54-1.17,1.45-2-.12-1.15-1.38-1.3-2.46-1.7-.76-.28-1.66-.49-2-1.16A1.82,1.82,0,0,1,30,70.75a2.14,2.14,0,0,1,1.11-1.42c1-.56,2.85-.61,3.54-1.52a1.71,1.71,0,0,0-.27-2.26,15.28,15.28,0,0,0-3-1.67A2.54,2.54,0,0,1,29.77,62a2.67,2.67,0,0,1,.34-1.65,1.71,1.71,0,0,1,1.18-.79l1.13-.38,1.48-.51a5.89,5.89,0,0,0,1.47-.53,2.38,2.38,0,0,0,.72-.95A1.5,1.5,0,0,0,35.33,55.24Z"/><rect class="cls-3" x="10.63" y="33.01" width="12.25" height="10.86"/><rect class="cls-5" x="10.63" y="33.01" width="32.99" height="10.86"/><path class="cls-6" d="M4.84,33.63c-7.51-11-3-23.52-3-23.52C3.85,4.88,7.75,1,13.49.53c4.92-.4,9,3.53,13.64,3.8,4.66-.26,8.71-4.2,13.64-3.8,5.73.47,9.63,4.35,11.65,9.58,0,0,4.5,12.51-3,23.52C49.4,33.63,29.82,42.4,4.84,33.63Z"/><path class="cls-7" d="M4.77,34.5A33.62,33.62,0,0,0,9.48,36.3a12.79,12.79,0,0,1,3.73-6.38c-.92-.63-2-1-2.84-1.74a7.18,7.18,0,0,1-2.1-3,21.11,21.11,0,0,1-1.72-8.58c.17-4.32,1.58-9,6.14-10.46s8.58.38,12.76,1.77c2.7.9,5.7,1.7,8.56,1.21,2-.35,4.17-1.26,4.35-3.44-1.89,1-4.4.87-6.42.51a10.89,10.89,0,0,1-4.86-1.87C22.44,4,18.4.13,13.49.53,7.75,1,3.85,4.88,1.84,10.11c0,0-4.5,12.51,3,23.52C4.84,33.63,4.81,33.95,4.77,34.5Z"/><path class="cls-7" d="M44.19,34.71c.2.45.38.9.55,1.36,1.6-.44,3.19-1,4.74-1.55,0-.56-.08-.88-.08-.88a24.83,24.83,0,0,0,4-10.48A8.88,8.88,0,0,1,53,24a13.72,13.72,0,0,1-4.87,5,47.59,47.59,0,0,1-4.41,2.39l-1,.51c-.33.17,0,.28.25.64A15.74,15.74,0,0,1,44.19,34.71Z"/><path class="cls-5" d="M4.84,33.63c-7.51-11-3-23.52-3-23.52C3.85,4.88,7.75,1,13.49.53c4.92-.4,9,3.53,13.64,3.8,4.66-.26,8.71-4.2,13.64-3.8,5.73.47,9.63,4.35,11.65,9.58,0,0,4.5,12.51-3,23.52C49.4,33.63,27.77,43.11,4.84,33.63Z"/><path class="cls-5" d="M24.27,3.75S36.22,8,38.32,5.08"/></g></g></g></svg>