<svg xmlns="http://www.w3.org/2000/svg" viewBox="0 0 57.17 84.4"><defs><style>.cls-1{fill:#f5efe4;}.cls-2{fill:#dccf9b;}.cls-3{fill:#7b4c44;}.cls-4{fill:#f1d5d6;}.cls-5{fill:none;stroke:#8b1451;stroke-linecap:round;stroke-linejoin:round;}</style></defs><title>img5</title><g id="Слой_2" data-name="Слой 2"><g id="Capa_1" data-name="Capa 1"><path class="cls-1" d="M28.71,59h.47c.28,0,.57,0,.85,0,10.6.7,9.23,21.31,9.23,21.31.47,5.17,4.89,3.17,4.89,3.17,10.61-7.59,7.92-33.26,7.92-33.26C60,38.64,55.25,25.44,55.25,25.44,53.13,19.92,49,15.83,43,15.34c-5.19-.42-9.46,3.73-14.38,4-4.92-.28-9.19-4.43-14.38-4-6,.49-10.16,4.59-12.29,10.1,0,0-4.75,13.2,3.17,24.82,0,0-2.69,25.67,7.92,33.26,0,0,4.42,2,4.9-3.17,0,0-1.37-20.6,9.23-21.31C27.66,59,28.18,59,28.71,59Z"/><path class="cls-2" d="M32.32,22.25a20.77,20.77,0,0,0,9.59,1.22c3-.34,6.36-1.41,8-4.09a7.05,7.05,0,0,0,.5-1,13,13,0,0,0-7.46-3c-5.19-.42-9.46,3.73-14.38,4-.24,0-.47,0-.7-.07A10.19,10.19,0,0,0,32.32,22.25Z"/><path class="cls-3" d="M33.06,18.2c1.09,3,5.87,2.88,8.45,1.84,2.15-.87,3.8-2.71,2.37-4.6-.3,0-.6-.08-.91-.11C39.4,15,36.27,16.91,33.06,18.2Z"/><path class="cls-4" d="M26,18.86C22.1,17.72,18.46,15,14.2,15.34c-6,.49-10.16,4.59-12.29,10.1,0,0-4.75,13.2,3.17,24.82,0,0-2.69,25.67,7.92,33.26,0,0,4.42,2,4.9-3.17,0,0-.9-13.52,4.4-19-.19.09-.39.19-.57.3-3,1.79-3.45,4.94-4.23,8.09-.44,1.77-2,8.11-4.9,5.23-1.72-1.68-2.17-4.44-2.51-6.72a69.28,69.28,0,0,1-.79-7.52c-.21-5.21.59-10.7,4.62-14.35-1-.66-2.09-1.1-3-1.84A7.58,7.58,0,0,1,8.7,41.35a22.27,22.27,0,0,1-1.81-9c.17-4.56,1.67-9.53,6.48-11s9.05.4,13.46,1.87a20.15,20.15,0,0,0,8.36,1.35C31.14,24.33,27.09,22.36,26,18.86Z"/><path class="cls-4" d="M56.35,39.2a9.55,9.55,0,0,1-.42.9,14.47,14.47,0,0,1-5.13,5.31,50,50,0,0,1-4.66,2.52L45,48.47c-.35.18,0,.3.26.68a16.33,16.33,0,0,1,1.29,2.24,25.58,25.58,0,0,1,2,9.5c.17,3.49.47,7.19-.23,10.64a18.39,18.39,0,0,1-1.6,4.69,6,6,0,0,1-1.88,2.48,2.28,2.28,0,0,1-2.61.12,3.89,3.89,0,0,1-1-2.65c-.29-2.24-.72-4.54-1.23-6.74s-1.17-4.6-2.68-6.33a6.18,6.18,0,0,0-2.55-1.77c5.29,5.52,4.39,19,4.39,19,.47,5.17,4.89,3.17,4.89,3.17,10.61-7.59,7.92-33.26,7.92-33.26A26.21,26.21,0,0,0,56.35,39.2Z"/><path class="cls-5" d="M28.71,59h.47c.28,0,.57,0,.85,0,10.6.7,9.23,21.31,9.23,21.31.47,5.17,4.89,3.17,4.89,3.17,10.61-7.59,7.92-33.26,7.92-33.26C60,38.64,55.25,25.44,55.25,25.44,53.13,19.92,49,15.83,43,15.34c-5.19-.42-9.46,3.73-14.38,4-4.92-.28-9.19-4.43-14.38-4-6,.49-10.16,4.59-12.29,10.1,0,0-4.75,13.2,3.17,24.82,0,0-2.69,25.67,7.92,33.26,0,0,4.42,2,4.9-3.17,0,0-1.37-20.6,9.23-21.31C27.66,59,28.18,59,28.71,59Z"/><path class="cls-5" d="M25.57,18.74s5.63,7,16.42,4.4"/><path class="cls-5" d="M45.38,12.49C46.83,10.5,50,5,51.27,3"/><path class="cls-5" d="M41.13,12.22c0-2.42-.11-7-.24-11.72"/><path class="cls-5" d="M37.1,13.33c-3.1-5.58-4-6.79-6.2-11.17"/></g></g></svg>