<svg xmlns="http://www.w3.org/2000/svg" viewBox="0 0 74.92 77.03"><defs><style>.cls-1{isolation:isolate;}.cls-2{fill:#f5efe4;}.cls-3{fill:#f1d5d6;}.cls-4,.cls-7{fill:none;stroke-linecap:round;stroke-linejoin:round;}.cls-4{stroke:#8b1451;}.cls-5,.cls-6{fill:#a5becd;}.cls-6{opacity:0.5;mix-blend-mode:multiply;}.cls-7{stroke:#b0bdc5;}</style></defs><title>img6</title><g class="cls-1"><g id="Слой_2" data-name="Слой 2"><g id="Capa_1" data-name="Capa 1"><path class="cls-2" d="M37.61,49h.52c.31,0,.63,0,.95,0,11.75.78,10.24,23.62,10.24,23.62.53,5.73,5.43,3.51,5.43,3.51,11.76-8.42,8.78-36.87,8.78-36.87C72.29,26.37,67,11.74,67,11.73,64.67,5.62,60.11,1.08,53.41.53,47.65.06,42.92,4.67,37.46,5,32,4.67,27.27.06,21.52.53c-6.71.55-11.27,5.08-13.62,11.2,0,0-5.27,14.63,3.51,27.51,0,0-3,28.45,8.78,36.87,0,0,4.9,2.22,5.43-3.51,0,0-1.52-22.85,10.23-23.62C36.43,48.94,37,48.94,37.61,49Z"/><path class="cls-3" d="M30.49,51.5c-.21.1-.43.21-.63.33-3.36,2-3.82,5.47-4.69,9-.49,2-2.18,9-5.44,5.8-1.9-1.87-2.4-4.92-2.78-7.45a76.9,76.9,0,0,1-.88-8.33C15.84,45,16.72,39,21.2,34.9c-1.07-.74-2.31-1.22-3.32-2a8.4,8.4,0,0,1-2.45-3.49,24.66,24.66,0,0,1-2-10c.19-5.05,1.85-10.56,7.19-12.23s10,.44,14.92,2.08c3.15,1.06,6.66,2,10,1.41,2.33-.41,4.87-1.47,5.09-4-2.21,1.16-5.15,1-7.5.6A12.72,12.72,0,0,1,37.43,5C32,4.64,27.26.07,21.52.53c-6.71.55-11.27,5.08-13.62,11.2,0,0-5.27,14.63,3.51,27.51,0,0-3,28.45,8.78,36.87,0,0,4.9,2.22,5.43-3.51C25.61,72.6,24.62,57.61,30.49,51.5Z"/><path class="cls-3" d="M68.24,27a10,10,0,0,1-.47,1,16.06,16.06,0,0,1-5.69,5.89,55.5,55.5,0,0,1-5.16,2.8l-1.21.6c-.39.19,0,.33.29.75a18,18,0,0,1,1.43,2.48A28.37,28.37,0,0,1,59.69,51c.19,3.87.53,8-.26,11.79A20.43,20.43,0,0,1,57.65,68a6.6,6.6,0,0,1-2.09,2.75,2.52,2.52,0,0,1-2.89.14A4.31,4.31,0,0,1,51.61,68c-.32-2.49-.8-5-1.36-7.47s-1.29-5.1-3-7a6.76,6.76,0,0,0-2.83-2c5.86,6.11,4.87,21.09,4.87,21.09.53,5.73,5.43,3.51,5.43,3.51,11.76-8.42,8.78-36.87,8.78-36.87A29,29,0,0,0,68.24,27Z"/><path class="cls-4" d="M37.61,49h.52c.31,0,.63,0,.95,0,11.75.78,10.24,23.62,10.24,23.62.53,5.73,5.43,3.51,5.43,3.51,11.76-8.42,8.78-36.87,8.78-36.87C72.29,26.37,67,11.74,67,11.73,64.67,5.62,60.11,1.08,53.41.53,47.65.06,42.92,4.67,37.46,5,32,4.67,27.27.06,21.52.53c-6.71.55-11.27,5.08-13.62,11.2,0,0-5.27,14.63,3.51,27.51,0,0-3,28.45,8.78,36.87,0,0,4.9,2.22,5.43-3.51,0,0-1.52-22.85,10.23-23.62C36.43,48.94,37,48.94,37.61,49Z"/><path class="cls-4" d="M34.12,4.3s14,5,16.44,1.55"/><rect class="cls-4" x="30.22" y="27.64" width="14.48" height="11.86" rx="2.34" ry="2.34"/><polygon class="cls-5" points="39.89 26.98 39.89 30.24 35.04 30.24 35.04 26.98 30.98 26.98 30.98 30.24 30.98 31.66 30.98 33.07 43.94 33.07 43.94 31.66 43.94 30.24 43.94 26.98 39.89 26.98"/><polygon class="cls-6" points="41.98 26.98 41.98 29.25 41.98 30.24 41.98 31.22 32.95 31.22 32.95 30.24 32.95 29.25 32.95 26.98 30.98 26.98 30.98 30.24 30.98 31.66 30.98 33.07 43.94 33.07 43.94 31.66 43.94 30.24 43.94 26.98 41.98 26.98"/><polygon class="cls-5" points="35.04 40.16 35.04 36.9 39.89 36.9 39.89 40.16 43.94 40.16 43.94 36.9 43.94 35.49 43.94 34.08 30.98 34.08 30.98 35.49 30.98 36.9 30.98 40.16 35.04 40.16"/><polygon class="cls-6" points="32.95 40.16 32.95 37.89 32.95 36.91 32.95 35.93 41.98 35.93 41.98 36.91 41.98 37.89 41.98 40.16 43.94 40.16 43.94 36.9 43.94 35.49 43.94 34.08 30.98 34.08 30.98 35.49 30.98 36.9 30.98 40.16 32.95 40.16"/><line class="cls-7" x1="0.5" y1="33.57" x2="74.42" y2="33.57"/></g></g></g></svg>