<svg xmlns="http://www.w3.org/2000/svg" viewBox="0 0 56.03 76.72"><defs><style>.cls-1{isolation:isolate;}.cls-2{fill:#f5efe4;}.cls-3{fill:#f1d5d6;}.cls-4,.cls-5{fill:#7b930f;}.cls-4{opacity:0.5;}.cls-4,.cls-8{mix-blend-mode:multiply;}.cls-6,.cls-7{fill:none;stroke:#8b1451;}.cls-6{stroke-miterlimit:10;}.cls-7{stroke-linecap:round;stroke-linejoin:round;}.cls-8{fill:#c6c6c6;}.cls-9{fill:#8b1451;}</style></defs><title>img9</title><g class="cls-1"><g id="Слой_2" data-name="Слой 2"><g id="Capa_1" data-name="Capa 1"><path class="cls-2" d="M29.62,54.78H30c.25,0,.49,0,.74,0,9.14.61,8,18.36,8,18.36.41,4.46,4.22,2.73,4.22,2.73,9.14-6.54,6.82-28.66,6.82-28.66,6.82-10,2.73-21.38,2.73-21.38-1.83-4.75-5.37-8.28-10.59-8.71-4.47-.36-8.15,3.21-12.39,3.45-4.24-.24-7.92-3.82-12.4-3.45-5.21.43-8.76,4-10.59,8.71,0,0-4.09,11.37,2.73,21.38,0,0-2.32,22.12,6.82,28.66,0,0,3.81,1.72,4.22-2.73,0,0-1.18-17.76,8-18.36C28.71,54.76,29.17,54.77,29.62,54.78Z"/><path class="cls-3" d="M24.09,56.75c-.17.08-.33.16-.49.26-2.62,1.54-3,4.26-3.64,7-.38,1.53-1.69,7-4.23,4.51-1.48-1.45-1.87-3.83-2.16-5.79a59.51,59.51,0,0,1-.68-6.48c-.18-4.49.5-9.22,4-12.37-.83-.57-1.8-.95-2.58-1.58a6.55,6.55,0,0,1-1.91-2.72,19.19,19.19,0,0,1-1.56-7.8c.15-3.93,1.44-8.21,5.58-9.51s7.8.34,11.6,1.61c2.45.82,5.18,1.55,7.78,1.09,1.81-.32,3.78-1.14,4-3.13a9.54,9.54,0,0,1-5.83.47,9.91,9.91,0,0,1-4.42-1.71c-4.23-.25-7.9-3.81-12.37-3.45-5.21.43-8.76,4-10.59,8.71,0,0-4.09,11.37,2.73,21.38,0,0-2.32,22.12,6.82,28.66,0,0,3.81,1.72,4.22-2.73C20.3,73.16,19.53,61.5,24.09,56.75Z"/><path class="cls-3" d="M53.43,37.71c-.11.26-.23.52-.36.77a12.45,12.45,0,0,1-4.42,4.57,42.63,42.63,0,0,1-4,2.18l-.94.46c-.3.15,0,.26.22.58A14,14,0,0,1,45,48.21a22,22,0,0,1,1.76,8.18,37.21,37.21,0,0,1-.2,9.17,15.83,15.83,0,0,1-1.38,4,5.15,5.15,0,0,1-1.62,2.14,2,2,0,0,1-2.25.11,3.34,3.34,0,0,1-.83-2.28c-.25-1.94-.62-3.91-1.06-5.81a12.48,12.48,0,0,0-2.31-5.45,5.32,5.32,0,0,0-2.2-1.52c4.56,4.75,3.78,16.39,3.78,16.39.41,4.46,4.22,2.73,4.22,2.73,9.14-6.54,6.82-28.66,6.82-28.66A22.58,22.58,0,0,0,53.43,37.71Z"/><path class="cls-4" d="M43.64,56.84c-.43,2,.11,4,2.09,4.92a6.41,6.41,0,0,0,3.67.48A60.77,60.77,0,0,0,50,53.36C47.2,53,44.37,53.46,43.64,56.84Z"/><path class="cls-4" d="M15.25,23.62c3,.82,5.28-1.32,5.09-4.29a11.07,11.07,0,0,0-.3-1.91,8.94,8.94,0,0,0-2.93-.28A11.3,11.3,0,0,0,12,18.78,4.26,4.26,0,0,0,15.25,23.62Z"/><path class="cls-4" d="M14.33,65.45c.93-1.46,1-3.68-.74-4.67a5.34,5.34,0,0,0-4.22-.38,39.42,39.42,0,0,0,1.44,7.19h0A4.89,4.89,0,0,0,14.33,65.45Z"/><path class="cls-5" d="M22.12,45.77c-1.2-.71-2.45.26-3.27,1.11a.27.27,0,0,1-.16.08c-1.17,2.65,4.58,5,4.62,1.42A3,3,0,0,0,22.12,45.77Z"/><path class="cls-6" d="M29.62,54.78H30c.25,0,.49,0,.74,0,9.14.61,8,18.36,8,18.36.41,4.46,4.22,2.73,4.22,2.73,9.14-6.54,6.82-28.66,6.82-28.66,6.82-10,2.73-21.38,2.73-21.38-1.83-4.75-5.37-8.28-10.59-8.71-4.47-.36-8.15,3.21-12.39,3.45-4.24-.24-7.92-3.82-12.4-3.45-5.21.43-8.76,4-10.59,8.71,0,0-4.09,11.37,2.73,21.38,0,0-2.32,22.12,6.82,28.66,0,0,3.81,1.72,4.22-2.73,0,0-1.18-17.76,8-18.36C28.71,54.76,29.17,54.77,29.62,54.78Z"/><path class="cls-7" d="M26.91,20.07s10.87,3.86,12.78,1.21"/><path class="cls-5" d="M43.72,14.52a2.28,2.28,0,0,1,.94.39,2.07,2.07,0,0,0,2.27.25,2.93,2.93,0,0,1,1.23-.55,3.31,3.31,0,0,1,2.25,1A5.72,5.72,0,0,1,52,18.21c.12.57,0,1.14.43,1.62.53.64,1.46.68,2,1.3a4.11,4.11,0,0,1,.83,2.51,11.7,11.7,0,0,1-.58,2.94,16.22,16.22,0,0,1-.56,1.81C53.9,29,53.95,30,53,29.81c-.43-.11-1,0-1.24-.5a5.46,5.46,0,0,0-.41-.94c-.54-.73-1.58-.42-2.34-.53-1.21-.17-1.58-1.31-1.68-2.37s.27-3.9-1.4-4.18c-.72-.12-1.36.33-2,.52a1.69,1.69,0,0,1-2.06-1.4c0-.42.31-.8.21-1.23-.15-.66-.78-.83-1.37-.86s-1.34.12-2,.16-2,.06-2.31-.57c-.45-.9.32-1.57,1-2a9.45,9.45,0,0,1,2.35-1.25,7.58,7.58,0,0,1,2.16-.18A9.21,9.21,0,0,1,43.72,14.52Z"/><path class="cls-8" d="M54.45,21.12a1.81,1.81,0,0,0-.52-.41,8.45,8.45,0,0,1,.48,3.87c-.17,1.31-.76,3.05-2.36,3-.92,0-.65-1.18-1.81-.79-.7.24-1.13-.09-1.62-.59a3.93,3.93,0,0,1-1-2.68c.07-1,.88-3.55-.83-3.42-.91.07-2.5,1.13-3.37.59a1.24,1.24,0,0,1-.58-1.07c0-1,1.31-3.4-.64-3.26-1.16.08-3,1-4,0a.84.84,0,0,1-.22-.86l-.65.42c-.67.45-1.44,1.13-1,2,.31.63,1.74.6,2.31.57s1.33-.18,2-.16,1.23.2,1.37.86c.1.43-.22.8-.21,1.23a1.69,1.69,0,0,0,2.06,1.4c.66-.19,1.31-.64,2-.52,1.67.28,1.29,3,1.4,4.18s.47,2.2,1.68,2.37c.76.11,1.8-.21,2.34.53a5.46,5.46,0,0,1,.41.94c.22.47.81.4,1.24.5.94.23.9-.76,1.13-1.43a16.22,16.22,0,0,0,.56-1.81,11.7,11.7,0,0,0,.58-2.94A4.11,4.11,0,0,0,54.45,21.12Z"/><path class="cls-6" d="M43.72,14.52a2.28,2.28,0,0,1,.94.39,2.07,2.07,0,0,0,2.27.25,2.93,2.93,0,0,1,1.23-.55,3.31,3.31,0,0,1,2.25,1A5.72,5.72,0,0,1,52,18.21c.12.57,0,1.14.43,1.62.53.64,1.46.68,2,1.3a4.11,4.11,0,0,1,.83,2.51,11.7,11.7,0,0,1-.58,2.94,16.22,16.22,0,0,1-.56,1.81C53.9,29,53.95,30,53,29.81c-.43-.11-1,0-1.24-.5a5.46,5.46,0,0,0-.41-.94c-.54-.73-1.58-.42-2.34-.53-1.21-.17-1.58-1.31-1.68-2.37s.27-3.9-1.4-4.18c-.72-.12-1.36.33-2,.52a1.69,1.69,0,0,1-2.06-1.4c0-.42.31-.8.21-1.23-.15-.66-.78-.83-1.37-.86s-1.34.12-2,.16-2,.06-2.31-.57c-.45-.9.32-1.57,1-2a9.45,9.45,0,0,1,2.35-1.25,7.58,7.58,0,0,1,2.16-.18A9.21,9.21,0,0,1,43.72,14.52Z"/><path class="cls-9" d="M45.24,17.16a1.42,1.42,0,0,0,2.23.37.23.23,0,0,0,.06-.27.18.18,0,0,0-.13-.11.23.23,0,0,0-.23,0A1.17,1.17,0,0,1,45.43,17c-.09-.09-.26,0-.19.13Z"/><path class="cls-9" d="M49.44,17.67a1,1,0,0,1,.81.83.7.7,0,0,1-.19.55c-.11.12-.27.15-.31.32a.1.1,0,0,0,.05.12c.22.11.47-.16.59-.33a1,1,0,0,0,.16-.71,1.1,1.1,0,0,0-1.1-1,.09.09,0,0,0,0,.17Z"/><path class="cls-9" d="M49.53,22.46a.76.76,0,0,0,.54,1c.35.1,1.18,0,1.23-.45a.11.11,0,0,0-.1-.12.72.72,0,0,0-.39.13,1.12,1.12,0,0,1-.54.12c-.4,0-.55-.35-.58-.7a.08.08,0,0,0-.16,0Z"/><path class="cls-9" d="M52.69,24.06a1.7,1.7,0,0,1-.23.85c-.18.27-.49.1-.74.16a.11.11,0,0,0-.06.17.69.69,0,0,0,1,0,1.23,1.23,0,0,0,.22-1.18.08.08,0,0,0-.16,0Z"/><path class="cls-9" d="M40.46,16a.72.72,0,0,1,.82-.2.57.57,0,0,1,.25.35c0,.15,0,.31.12.42a.08.08,0,0,0,.1,0c.33-.24-.06-.89-.35-1a.78.78,0,0,0-1,.39s0,.06,0,0Z"/><path class="cls-9" d="M43.83,19.64c.1,0,.12-.16,0-.16s-.12.16,0,.16Z"/><path class="cls-9" d="M43.84,19.57a2.21,2.21,0,0,1,.8-.28c.31,0,.42.28.65.42a.09.09,0,0,0,.14-.09.76.76,0,0,0-.69-.54,1,1,0,0,0-.91.47,0,0,0,0,0,0,0Z"/><path class="cls-5" d="M7.06,34.67c.2.24.54,0,.81,0a1.9,1.9,0,0,1,1.46,1.7c0,.73-.46,1.34-.48,2.06,0,1.11.82,2,1.33,2.86a2.36,2.36,0,0,0,1.63,1.36c.87.17,2,0,2.7.57a1.37,1.37,0,0,1,.5,1.36c-.16,1.42-1.93,2.07-2.71,3.1a2.69,2.69,0,0,0-.21,2.56A5.93,5.93,0,0,1,12.28,52c0,1,.41,2.75-.2,3.68a4.18,4.18,0,0,1-2.23,1.18,2.55,2.55,0,0,1-1.94-.57,5.17,5.17,0,0,1-2.16-3.76,3.85,3.85,0,0,1,.7-2.23c.66-.8,1.33-1.57.47-2.51-.65-.71-1.73-.84-2.35-1.58S4.23,44,4.47,43c.34-1.38.23-2.6-1.11-3.38-1-.59-.9-1.46-1-2.51A3.94,3.94,0,0,1,2.52,36,4.12,4.12,0,0,1,4.3,33.39c.64-.38,2.67-.87,2.9.31.06.3-.34.63-.18.92Z"/><path class="cls-6" d="M7.06,34.67c.2.24.54,0,.81,0a1.9,1.9,0,0,1,1.46,1.7c0,.73-.46,1.34-.48,2.06,0,1.11.82,2,1.33,2.86a2.36,2.36,0,0,0,1.63,1.36c.87.17,2,0,2.7.57a1.37,1.37,0,0,1,.5,1.36c-.16,1.42-1.93,2.07-2.71,3.1a2.69,2.69,0,0,0-.21,2.56A5.93,5.93,0,0,1,12.28,52c0,1,.41,2.75-.2,3.68a4.18,4.18,0,0,1-2.23,1.18,2.55,2.55,0,0,1-1.94-.57,5.17,5.17,0,0,1-2.16-3.76,3.85,3.85,0,0,1,.7-2.23c.66-.8,1.33-1.57.47-2.51-.65-.71-1.73-.84-2.35-1.58S4.23,44,4.47,43c.34-1.38.23-2.6-1.11-3.38-1-.59-.9-1.46-1-2.51A3.94,3.94,0,0,1,2.52,36,4.12,4.12,0,0,1,4.3,33.39c.64-.38,2.67-.87,2.9.31.06.3-.34.63-.18.92Z"/><path class="cls-8" d="M12.29,53.67a3.34,3.34,0,0,1-3.82,1.49A3.25,3.25,0,0,1,6.89,52a4.49,4.49,0,0,1,.75-2c.3-.47.89-1.23.81-1.82-.11-.82-.69-1-1.31-1.25C6,46.5,4.91,46,5.33,44.6c.22-.73,1.07-1.17.29-2.15a2,2,0,0,1-.41-.65,4.61,4.61,0,0,1,0-1.87c.22-1.55-.87-1.87-1.7-2.86a1.67,1.67,0,0,1-.28-1.35C3.7,34.2,5.08,33.62,6.39,33a3.6,3.6,0,0,0-2.09.4A4.12,4.12,0,0,0,2.52,36a3.94,3.94,0,0,0-.16,1.15c.09,1.05,0,1.92,1,2.51,1.34.77,1.45,2,1.11,3.38-.24,1-.62,2.3.1,3.17s1.7.87,2.35,1.58c.86.95.19,1.72-.47,2.51a3.85,3.85,0,0,0-.7,2.23,5.17,5.17,0,0,0,2.16,3.76,2.55,2.55,0,0,0,1.94.57,4.18,4.18,0,0,0,2.23-1.18,3.7,3.7,0,0,0,.31-2.18Z"/><path class="cls-9" d="M5,35.68c-.06.29-.09.59.21.77a.68.68,0,0,0,.8-.16.09.09,0,0,0-.06-.14c-.19,0-.36.1-.56.09s-.25-.39-.25-.55a.07.07,0,0,0-.15,0Z"/><path class="cls-9" d="M6.37,39.32c.45.06.82.35.75.83a.74.74,0,0,1-.34.48c-.1.08-.16.2,0,.29a.16.16,0,0,0,.16,0,1,1,0,0,0,.47-1.13.92.92,0,0,0-1-.64c-.09,0-.08.15,0,.16Z"/><path class="cls-9" d="M7.05,43.65a.64.64,0,0,0,.09,1c.28.19,1,.15,1-.24a.08.08,0,0,0-.05-.08c-.23-.09-.47.12-.72.1s-.32-.49-.29-.73a0,0,0,0,0-.08,0Z"/><path class="cls-9" d="M8.47,41.67c.19.14.42.27.49.51s-.16.39-.15.61a.1.1,0,0,0,.11.1c.31-.07.39-.5.32-.77a.84.84,0,0,0-.73-.58.07.07,0,0,0,0,.12Z"/><path class="cls-9" d="M11.4,44a.59.59,0,0,0-.3.73c.11.28.63.52.88.34a.11.11,0,0,0,0-.14c-.11-.21-.34-.19-.52-.31s-.08-.4,0-.57,0-.07-.07,0Z"/><path class="cls-9" d="M9.14,49.1c.24,0,.51.11.59.37s-.14.43-.32.58a.19.19,0,0,0-.06.18.18.18,0,0,0,0,.09.19.19,0,0,0,.23,0,.82.82,0,0,0,.43-1A.65.65,0,0,0,9.12,49a.05.05,0,0,0,0,.09Z"/><path class="cls-9" d="M8.67,51.6a.75.75,0,0,0,0,1.11.91.91,0,0,0,1.16-.17.24.24,0,0,0,.06-.28.22.22,0,0,0-.08-.09.24.24,0,0,0-.29,0c-.16.14-.38.31-.6.17s-.13-.51-.12-.68a.09.09,0,0,0-.16-.06Z"/><path class="cls-5" d="M53.92.91s-.2.28-.57.77a7.79,7.79,0,0,0-.57.9,3,3,0,0,0-.28.58c-.08.21-.2.42-.27.66L52,4.54c0,.26-.1.53-.13.8a9.19,9.19,0,0,0,0,1.75v.09h0v.09l0,.24a3.74,3.74,0,0,0,.12.37,3.7,3.7,0,0,0,.42.73A9,9,0,0,0,53.86,10a9.22,9.22,0,0,1,1.49,1.59,3.72,3.72,0,0,1,.29.5l.06.13,0,.06,0,.06h0v0l.08.24.08.24.05.31a2.44,2.44,0,0,1,0,.59,5,5,0,0,1-.47,2c-.24.57-.51,1.06-.73,1.51a8.19,8.19,0,0,0-.5,1.26,3.81,3.81,0,0,0-.13,1l0,.39.06.29.05.24-.12-.22L54.09,20c0-.11-.08-.25-.12-.4a3.51,3.51,0,0,1-.08-1.13A6.65,6.65,0,0,1,54.2,17,9.84,9.84,0,0,0,55,13.78a1.4,1.4,0,0,0,0-.38l0-.18L54.81,13l-.09-.23-.09-.15a2.72,2.72,0,0,0-.23-.37,8.37,8.37,0,0,0-1.34-1.37,10,10,0,0,1-1.5-1.57,3.91,3.91,0,0,1-.53-1,5.08,5.08,0,0,1-.14-.58l0-.24,0-.16V7.16a8,8,0,0,1,.16-2c.07-.3.16-.6.25-.88l.35-.78a6.78,6.78,0,0,1,.4-.66,3.3,3.3,0,0,1,.41-.56,5.86,5.86,0,0,1,.76-.81Z"/><path class="cls-5" d="M2.79,0,2.58.26C2.45.44,2.22.67,2,1a7.27,7.27,0,0,0-.68,1.27A4.36,4.36,0,0,0,1,3.11a6.13,6.13,0,0,0-.18.94A7.9,7.9,0,0,0,.91,6.2a2.45,2.45,0,0,0,.15.51,2.79,2.79,0,0,0,.25.44A6.33,6.33,0,0,0,2.09,8a13.75,13.75,0,0,1,2,2,3.28,3.28,0,0,1,.61,1.54,3,3,0,0,1-.31,1.68c-.49,1-1.18,1.63-1.49,2.34a1.66,1.66,0,0,0-.14,1l0,.13,0-.05h0v0l0,0,0,.08a.81.81,0,0,0,.13.25,2.46,2.46,0,0,0,.32.37,6.82,6.82,0,0,1,1,1,1.48,1.48,0,0,1,.2.34l.09.18v0l0,.06h0v0l0,.08a2.26,2.26,0,0,1,.1.68,2.59,2.59,0,0,1-.38,1.34c-.21.35-.45.66-.65.93s-.2.28-.29.41l-.13.2-.1.2a3.19,3.19,0,0,0-.32.78,3.17,3.17,0,0,0,.09,1.39,7,7,0,0,1,.15,1l0,.34L3,26c-.05-.21-.17-.51-.31-.9a3.19,3.19,0,0,1-.31-1.52c0-.16.06-.32.09-.49a3.69,3.69,0,0,1,.15-.46c0-.08,0-.13.1-.25l.12-.23c.08-.16.17-.31.26-.47a3.49,3.49,0,0,0,.72-1.83,1.37,1.37,0,0,0-.11-.52l0-.07v0h0v0h0L3.6,19.2A.71.71,0,0,0,3.47,19a8.22,8.22,0,0,0-.91-.79A3.1,3.1,0,0,1,2,17.59a1.63,1.63,0,0,1-.19-.34l0-.08,0,0v0h0l0-.07-.05-.21a2.63,2.63,0,0,1,.17-1.68c.44-1,1.13-1.68,1.47-2.41a1.89,1.89,0,0,0-.18-2.06,15.9,15.9,0,0,0-1.77-1.9A6.13,6.13,0,0,1,.49,7.67,3.58,3.58,0,0,1,.18,7,3.21,3.21,0,0,1,0,6.32,7.62,7.62,0,0,1,.18,3.94,6.35,6.35,0,0,1,.91,2.08,6.42,6.42,0,0,1,1.82.85,7.27,7.27,0,0,1,2.53.22Z"/><path class="cls-5" d="M28.87,2.26l.14.14a3.61,3.61,0,0,1,.38.43,6.7,6.7,0,0,1,.5.75,9.2,9.2,0,0,1,.54,1,8.87,8.87,0,0,1,.47,1.32,4.9,4.9,0,0,1,.21,1.64v.06h0v.08l0,.1L31,8a2,2,0,0,1-.13.44,4.66,4.66,0,0,1-.4.84,15.91,15.91,0,0,0-.8,1.38,3.43,3.43,0,0,0-.23.61,3,3,0,0,0,0,.38,1.17,1.17,0,0,0,0,.27,12.4,12.4,0,0,0,.48,1.42,5.48,5.48,0,0,1,.24,1.6,8.29,8.29,0,0,1-.08,1.39,9.77,9.77,0,0,1-.21,1.14,8.56,8.56,0,0,1-.22.86c-.14.47-.23.74-.23.74s0-.28,0-.77,0-1.18,0-2c0-.41-.05-.84-.12-1.29a6.07,6.07,0,0,0-.35-1.33c-.09-.22-.19-.43-.32-.68a3,3,0,0,1-.31-.9,2.4,2.4,0,0,1,0-.55,3.77,3.77,0,0,1,0-.44,3.92,3.92,0,0,1,.31-1,15.78,15.78,0,0,1,.89-1.46c.12-.21.27-.44.34-.61L29.95,8A1.6,1.6,0,0,0,30,7.78l.05-.19,0-.09v0h0v0a5.2,5.2,0,0,0,0-1.34c-.06-.45-.16-.88-.25-1.27s-.2-.76-.31-1.07-.21-.58-.29-.81S29,2.57,29,2.45Z"/></g></g></g></svg>