<svg xmlns="http://www.w3.org/2000/svg" viewBox="0 0 191.74 114.87"><defs><style>.cls-1{isolation:isolate;}.cls-2{fill:#b2e0f9;}.cls-10,.cls-11,.cls-12,.cls-14,.cls-15,.cls-16,.cls-2,.cls-6,.cls-7{stroke:#002036;}.cls-11,.cls-12,.cls-14,.cls-15,.cls-16,.cls-2,.cls-7{stroke-miterlimit:10;}.cls-11,.cls-12,.cls-14,.cls-15,.cls-16,.cls-2,.cls-6,.cls-7{stroke-width:1.09px;}.cls-12,.cls-3,.cls-8{fill:#fff;}.cls-4{fill:#d4e1ea;}.cls-4,.cls-9{mix-blend-mode:multiply;}.cls-5{fill:#002036;}.cls-10,.cls-14,.cls-6{fill:none;}.cls-10,.cls-11,.cls-12,.cls-14,.cls-15,.cls-6{stroke-linecap:round;}.cls-10,.cls-6{stroke-linejoin:round;}.cls-15,.cls-7{fill:#f3faff;}.cls-8{opacity:0.7;}.cls-9{fill:#e6f5fe;}.cls-10{stroke-width:1.63px;}.cls-11{fill:#dc524d;}.cls-13{fill:#f8c2c0;}.cls-16{fill:#f6a654;}</style></defs><title>Ресурс 4</title><g class="cls-1"><g id="Слой_2" data-name="Слой 2"><g id="Capa_1" data-name="Capa 1"><path class="cls-2" d="M92.43,51.11s-44.61,14-77.1-10.53c-22.51-17-2.76-54,19.52-34.52,34.3,30,59.5,32.54,59.5,32.54Z"/><path class="cls-3" d="M69.4,33.94a26.94,26.94,0,0,0-5.89-3.8,100.88,100.88,0,0,1-8.69-5.82c-5.92-4.11-11.7-8.41-17.63-12.51C31.46,7.85,18-1.32,13.48,9.6c-.05.13.1.27.23.23,1.73-.61,3.11-1.73,4.83-2.42,2.81-1.13,5.74-.1,8.3,1.13,5,2.39,9.53,6,14,9.22S50,24.45,54.68,27.6c4.23,2.83,9.24,6.12,14.37,6.94C69.38,34.6,69.69,34.21,69.4,33.94Z"/><path class="cls-4" d="M82,46.25c-9.55,4.24-19,5-29.28,3.65-12-1.62-23.9-6-32.27-15.11A53.67,53.67,0,0,1,11,20.92a79.94,79.94,0,0,1-3.41-8.5c-.08-.26-.16-.52-.24-.78a24,24,0,0,0,8,28.94c32.49,24.48,77.1,10.53,77.1,10.53L94.35,38.6s-.59-.06-1.7-.27A29.07,29.07,0,0,1,82,46.25Z"/><path class="cls-5" d="M77.47,45.63s-.89-.07-2.42-.28-3.71-.54-6.31-1-5.61-1.17-8.8-2c-1.6-.42-3.23-.93-4.89-1.41s-3.33-1.07-5-1.7S46.77,38,45.19,37.22,42,35.87,40.57,35.1s-2.91-1.44-4.2-2.23-2.57-1.43-3.65-2.2l-3-2c-.86-.64-1.58-1.23-2.19-1.71l-1.9-1.49,1.93,1.46c.62.46,1.35,1,2.22,1.66l3,1.94c1.08.75,2.37,1.38,3.68,2.12s2.74,1.44,4.23,2.14,3,1.37,4.64,2,3.25,1.23,4.9,1.84,3.34,1.07,5,1.6,3.29.93,4.89,1.31c3.19.78,6.19,1.4,8.78,1.84s4.75.74,6.27.91,2.38.23,2.38.23Z"/><path class="cls-5" d="M35.32,21.65a.67.67,0,0,0,0-.12h0l0-.42a0,0,0,0,0-.06,0q0,.21,0,.42h0a.67.67,0,0,0,0,.12,0,0,0,0,0,.05,0S35.32,21.69,35.32,21.65Z"/><path class="cls-5" d="M34.72,16a1.61,1.61,0,0,0-.83-.22,1.16,1.16,0,0,0-.92.53c-.48.66.47,1.61,1.13,1.13l.26-.21.17-.09.15-.11q.21-.28,0,0A.58.58,0,0,0,34.72,16Z"/><path class="cls-5" d="M41.34,21.22c0-.22-.1-.44-.15-.65a.5.5,0,0,0-1,0c-.06.22-.1.43-.15.65A.65.65,0,1,0,41.34,21.22Z"/><path class="cls-5" d="M46.56,25.77a.78.78,0,0,0,0,1.57A.78.78,0,0,0,46.56,25.77Z"/><path class="cls-5" d="M49.07,22.5s.08.2.1.22l0,.14a.3.3,0,0,0,.57,0l.06-.19c-.06.19.07-.12.08-.17C50.15,21.8,48.83,21.8,49.07,22.5Z"/><path class="cls-5" d="M41.54,27.53a.7.7,0,0,0,0,1.39A.7.7,0,0,0,41.54,27.53Z"/><path class="cls-5" d="M24.74,14.84h0a.42.42,0,0,0,0,.81h0a.63.63,0,1,0,0-.84Z"/><path class="cls-5" d="M26.9,5.11a.55.55,0,0,0-.32,1l0,.05a.32.32,0,0,0,.61,0l0-.05A.55.55,0,0,0,26.9,5.11Z"/><path class="cls-5" d="M21.46,8.91a.49.49,0,0,0,0,1A.49.49,0,0,0,21.46,8.91Z"/><path class="cls-5" d="M17.7,4.18a.62.62,0,0,0,0,1.24A.62.62,0,0,0,17.7,4.18Z"/><path class="cls-5" d="M29.41,9.53a1.13,1.13,0,0,0,0,2.25A1.13,1.13,0,0,0,29.41,9.53Z"/><path class="cls-5" d="M55.41,30.07c-.3-.07-.15-.3-.29-.53A.72.72,0,0,0,54,29.39c-.64.64.24,1.49.9,1.07a1,1,0,0,0,.45.11C55.63,30.56,55.7,30.14,55.41,30.07Z"/><path class="cls-5" d="M59.08,28.71a2,2,0,0,0,0,.35.42.42,0,0,0,.84,0,2.1,2.1,0,0,0,0-.35A.45.45,0,0,0,59.08,28.71Z"/><path class="cls-5" d="M62,31.93a.48.48,0,0,0,0,1A.48.48,0,0,0,62,31.93Z"/><path class="cls-5" d="M68.86,34c-.18,0-.37-.16-.11.06a.6.6,0,1,0,0,.84c-.26.22-.06.09.11.06A.5.5,0,0,0,68.86,34Z"/><path class="cls-5" d="M9.78,16.79a.69.69,0,0,0-.1-.19l-.06-.17a.31.31,0,0,0-.59,0L9,16.6a.66.66,0,0,0-.1.19C8.62,17.53,10,17.53,9.78,16.79Z"/><path class="cls-5" d="M16.86,13.4h-.29a.6.6,0,0,0,0,1.2h.29A.61.61,0,0,0,16.86,13.4Z"/><path class="cls-5" d="M13.26,9a1,1,0,0,0-.68,1.2,1,1,0,0,0,.45.58c-.27-.14,0,0,.13.1a.83.83,0,0,0,1.14-.36A1,1,0,0,0,13.26,9Z"/><path class="cls-2" d="M94,54.62s-31,35-71.47,30.77c-28-2.92-30.22-44.82-1.09-39.64,44.84,8,67.76-2.83,67.76-2.83Z"/><path class="cls-3" d="M65.44,51.79a26.91,26.91,0,0,0-7-.21A101.15,101.15,0,0,1,48,51.08c-7.19-.47-14.36-1.17-21.56-1.62C19.48,49,3.18,48.13,5,59.81a.19.19,0,0,0,.31.08c1.17-1.41,1.77-3.09,2.89-4.56C10,52.91,13,52.27,15.87,52c5.49-.51,11.27.24,16.75.67,5.64.44,11.28,1,16.94,1.28,5.09.24,11.08.48,15.89-1.47A.37.37,0,0,0,65.44,51.79Z"/><path class="cls-4" d="M82.6,55.83c-6,8.56-13.66,14.11-23.2,18.24C48.29,78.87,35.83,81.25,24,77.77a53.68,53.68,0,0,1-15.29-7,80,80,0,0,1-7.31-5.52l-.6-.54A24,24,0,0,0,22.55,85.39C63,89.6,94,54.62,94,54.62L89.21,42.91s-.54.25-1.6.65A29.07,29.07,0,0,1,82.6,55.83Z"/><path class="cls-5" d="M78.38,57.65s-.8.39-2.22,1S72.7,60.11,70.22,61s-5.41,1.89-8.58,2.81c-1.58.47-3.24.87-4.92,1.31s-3.4.8-5.14,1.11-3.46.67-5.18.86-3.41.47-5.06.56-3.23.27-4.75.26-2.94.11-4.26,0l-3.59-.18c-1.07-.11-2-.24-2.75-.33l-2.4-.3,2.4.25c.76.07,1.69.19,2.76.28l3.59.11c1.31.08,2.74,0,4.25-.08s3.09-.18,4.73-.35,3.32-.39,5-.66,3.42-.62,5.14-1,3.41-.81,5.09-1.2,3.3-.9,4.87-1.4c3.14-1,6-2,8.47-3s4.45-1.82,5.84-2.46,2.16-1,2.16-1Z"/><path class="cls-5" d="M29.9,58.86l-.06-.1h0l-.23-.35a0,0,0,0,0,0,0l.2.37h0l.06.1a0,0,0,0,0,.07,0A0,0,0,0,0,29.9,58.86Z"/><path class="cls-5" d="M26.48,54.34a1.63,1.63,0,0,0-.83.24,1.17,1.17,0,0,0-.52.93.83.83,0,0,0,1.55.38,2.8,2.8,0,0,0,.12-.31,1.09,1.09,0,0,1,.1-.17l.07-.17q0-.35,0,0A.58.58,0,0,0,26.48,54.34Z"/><path class="cls-5" d="M34.83,55.38l-.47-.48a.5.5,0,0,0-.83.5c.06.22.14.43.21.64C34.1,57.06,35.58,56.17,34.83,55.38Z"/><path class="cls-5" d="M41.65,56.58a.78.78,0,0,0,.81,1.34A.78.78,0,0,0,41.65,56.58Z"/><path class="cls-5" d="M42.11,52.5l.2.14.11.1a.3.3,0,0,0,.49-.29l0-.2c0,.19,0-.14,0-.19C42.68,51.33,41.55,52,42.11,52.5Z"/><path class="cls-5" d="M38.26,60.68A.7.7,0,0,0,39,61.87.7.7,0,0,0,38.26,60.68Z"/><path class="cls-5" d="M17.33,58.48l0,0a.42.42,0,0,0,.42.7h0a.63.63,0,1,0-.43-.72Z"/><path class="cls-5" d="M14.16,49a.55.55,0,0,0,.23,1l0,0a.32.32,0,0,0,.52-.31v-.05A.55.55,0,0,0,14.16,49Z"/><path class="cls-5" d="M11.46,55.1a.49.49,0,0,0,.51.84A.49.49,0,0,0,11.46,55.1Z"/><path class="cls-5" d="M5.79,53A.62.62,0,0,0,6.43,54,.62.62,0,0,0,5.79,53Z"/><path class="cls-5" d="M18.58,51.52a1.13,1.13,0,0,0,1.16,1.93A1.13,1.13,0,0,0,18.58,51.52Z"/><path class="cls-5" d="M51.46,55.7c-.29.1-.29-.18-.52-.31a.72.72,0,0,0-1,.46.7.7,0,0,0,1.32.46,1,1,0,0,0,.44-.14C51.89,56,51.74,55.61,51.46,55.7Z"/><path class="cls-5" d="M53.89,52.64a2,2,0,0,0,.21.29.42.42,0,0,0,.72-.44,1.92,1.92,0,0,0-.16-.32A.45.45,0,0,0,53.89,52.64Z"/><path class="cls-5" d="M58.09,53.87a.48.48,0,0,0,.5.82A.48.48,0,0,0,58.09,53.87Z"/><path class="cls-5" d="M65,52.14c-.17.06-.4.05-.07.11a.6.6,0,1,0,.44.72c-.11.32,0,.11.13,0A.5.5,0,0,0,65,52.14Z"/><path class="cls-5" d="M5.52,67.87a.66.66,0,0,0-.18-.11l-.13-.12a.31.31,0,0,0-.5.3l0,.17a.67.67,0,0,0,0,.21C4.91,69.11,6.13,68.37,5.52,67.87Z"/><path class="cls-5" d="M9.83,61.31l-.24.16a.6.6,0,0,0,.62,1l.25-.14C11.14,62,10.49,60.88,9.83,61.31Z"/><path class="cls-5" d="M4.47,59.39a1,1,0,0,0,0,1.38,1,1,0,0,0,.68.27c-.3,0,.06,0,.16,0a.83.83,0,0,0,.79-.9A1,1,0,0,0,4.47,59.39Z"/><path class="cls-6" d="M143.5,49.21C146,54.71,166.18,73.38,182.6,54"/><path class="cls-7" d="M182.13,54.68c2.45,2,5.81-1.3,6.28-2.4.72-1.67-.43-3.8-1.76-3.83s-3.23,2-3.23,2-.88-1.47-1.16-1C181.3,51.07,180.71,53.49,182.13,54.68Z"/><path class="cls-7" d="M134.92,3.4c-7.29,0-13.87,6.61-23.7,6.61S94.8,3.4,87.51,3.4C73.11,3.4,57.49,24,59.6,40.47c2.36,18.4,22.84,73.86,37,73.86,7,0,6.94-13.86,10.51-28.73,1.63-6.8,4.89-7.61,6.52.54,3.05,15.27,5.71,28.18,12.24,28.18,14.14,0,35-59.07,37-73.86C165,24,149,3.4,134.92,3.4Z"/><path class="cls-8" d="M91.93,88.67c6.73.54,5.39-19.75,19.3-20.58,8-.47,11.52,3.5,12.7,9.66,1.25,6.52.78,12.61,7.79,12.19s26.16-30.63,25.64-49.79c-.24-8.76-3.95-18.61-8.07-26.32a15,15,0,0,0-13.82-7.75c-7.06.26-13.36,5-19.35,8.21-8.06,4.38-14-2.94-21.26-4.91-6.94-1.88-13.35,0-17.94,5.71C71.39,22,71.3,32.27,73.31,40.55,74.77,46.58,85.21,88.13,91.93,88.67Z"/><path class="cls-3" d="M110.72,18.61c4.77.51,8.73-.66,13.28-2s9.27-2,13.53.2c8.71,4.55,12.83,15.8,14.47,24.9,1,5.47,1.69,11,.86,16.58a37.74,37.74,0,0,1-1.11,4.94c3.44-7.87,5.81-16.23,5.62-23.14-.24-8.76-3.95-18.61-8.07-26.32a15,15,0,0,0-13.82-7.75c-7.06.26-13.36,5-19.35,8.21-8.06,4.38-14-2.94-21.26-4.91a20.85,20.85,0,0,0-2.5-.52C97.06,14,104,17.9,110.72,18.61Z"/><path class="cls-9" d="M97.55,12.31a15.83,15.83,0,0,0,12.88,3c5.44-1,11.47-3.85,13.48-8.5-3.76,1.64-7.83,3.26-12.7,3.26-9.32,0-15.72-5.94-22.57-6.56C91.63,6.39,94.28,9.65,97.55,12.31Z"/><path class="cls-9" d="M141.66,86.32c-2.66,4-9.84,9-15.38,7.47s-5.9-9.11-6.94-13.57c-.49-2.1-.81-5.8-3.08-6.8a8.31,8.31,0,0,0-7.28.41,18.54,18.54,0,0,0-8.51,12.5c-.7,4.6-1.54,11.13-7.48,11.25-3.12.06-4.72-3.36-6.55-5.48-3-3.42-16.19-26.8-26.41-49,3.75,20.56,23,71.18,36.55,71.18,7,0,6.94-13.86,10.51-28.73,1.63-6.8,4.89-7.61,6.52.54,3.05,15.27,5.71,28.18,12.24,28.18,10.21,0,24-30.84,31.52-53.53C152.35,71.09,147.48,77.65,141.66,86.32Z"/><path class="cls-5" d="M121.83,8.28l-.89.3c-.28.1-.64.2-1,.36l-1.27.52c-.94.37-2,.88-3.24,1.32-.61.22-1.22.48-1.86.69l-2,.61c-.65.23-1.34.32-2,.49s-1.3.33-1.94.4l-1.84.24a13.85,13.85,0,0,1-1.65.17l-3.41.09,3.4-.26a13.73,13.73,0,0,0,1.63-.25l1.81-.32c.63-.1,1.25-.33,1.9-.49s1.31-.32,1.94-.58l1.9-.7c.62-.23,1.22-.52,1.8-.77,1.17-.5,2.22-1,3.16-1.48L119.6,8c.38-.19.72-.29,1-.41l.87-.34a.54.54,0,0,1,.4,1h0Z"/><path class="cls-5" d="M79.35,9.94a4.51,4.51,0,0,0-2.54,1.23,7.18,7.18,0,0,0-2,2.54.05.05,0,0,0,.09.05,8.66,8.66,0,0,1,2.16-2.24c.71-.54,1.75-.75,2.36-1.37A.12.12,0,0,0,79.35,9.94Z"/><path class="cls-5" d="M80.32,10.72a4,4,0,0,0-2.79,1.75c0,.05,0,.13.09.09a6.94,6.94,0,0,1,2.87-1.21C80.9,11.27,80.73,10.65,80.32,10.72Z"/><path class="cls-5" d="M79.26,83c-.42-.54-1-.91-1.43-1.42a4.66,4.66,0,0,1-1.16-2.22s-.07,0-.07,0c-.17,1.51,1,3.63,2.62,3.73C79.28,83.12,79.29,83,79.26,83Z"/><path class="cls-5" d="M81.3,82.19c-.8-.71-1.92-1-2.58-1.89a.06.06,0,0,0-.12,0,2.74,2.74,0,0,0,2.64,2A.07.07,0,0,0,81.3,82.19Z"/><path class="cls-5" d="M146.77,75c-.48,1-.65,2-1.14,3s-1.17,1.74-1.73,2.63c0,0,0,0,0,0,1.56-1.05,3.25-3.66,3.14-5.6C147.06,74.89,146.85,74.8,146.77,75Z"/><path class="cls-5" d="M145.93,73.37a.11.11,0,0,0-.2,0,4.37,4.37,0,0,0-.49,1.66,10.71,10.71,0,0,1-.51,1.75c-.07.17.19.25.28.12C145.64,76,146.35,74.5,145.93,73.37Z"/><path class="cls-5" d="M136.9,6.3A4.14,4.14,0,0,0,133,6.2c-.05,0,0,.11,0,.11.58,0,1.15-.06,1.73-.07s1.38.19,2.08.25C137,6.49,137,6.36,136.9,6.3Z"/><path class="cls-5" d="M138.28,8a3.12,3.12,0,0,0-3.09-.46c-.12,0-.11.24,0,.23a3.81,3.81,0,0,1,2.21.43c.21.11.82.6.93.1A.31.31,0,0,0,138.28,8Z"/><circle class="cls-5" cx="102.65" cy="40.68" r="5.3"/><circle class="cls-3" cx="104.62" cy="42.24" r="1.56"/><circle class="cls-3" cx="103.05" cy="39.67" r="1.01"/><circle class="cls-5" cx="141.14" cy="40.68" r="5.3"/><circle class="cls-3" cx="139.17" cy="42.24" r="1.56"/><circle class="cls-3" cx="140.73" cy="39.67" r="1.01"/><path class="cls-10" d="M147.4,31.41c-1.27-5-9.67-5.07-10.24-.54"/><path class="cls-10" d="M96.93,31.41c1.27-5,9.67-5.07,10.24-.54"/><path class="cls-11" d="M113.85,54.5c0,9.11,13.59,9.11,13.59,0Z"/><path class="cls-12" d="M125,56.54c1.92,0,2.48-.93,2.48-2H113.85c0,1.11,2.11,2,3.19,2Z"/><ellipse class="cls-13" cx="142.7" cy="51.87" rx="5.1" ry="2.63"/><ellipse class="cls-13" cx="102.05" cy="51.87" rx="5.1" ry="2.63"/><path class="cls-14" d="M127.44,53.41a2.57,2.57,0,0,0,1.81,1.81"/><path class="cls-14" d="M113.85,53.41A2.57,2.57,0,0,1,112,55.22"/><path class="cls-5" d="M121.76,62.88a8.52,8.52,0,0,1-1.72.22c-.17,0-.83,0-.88.27s.42.65.74.74a3.56,3.56,0,0,0,2.17-.1A.59.59,0,0,0,121.76,62.88Z"/><path class="cls-5" d="M136.45,48.87a.18.18,0,0,0,0,.36A.18.18,0,0,0,136.45,48.87Z"/><path class="cls-5" d="M138.24,48.56a.67.67,0,0,0,0,1.35A.67.67,0,0,0,138.24,48.56Z"/><path class="cls-5" d="M141.92,48.3a.34.34,0,0,0,0,.68A.34.34,0,0,0,141.92,48.3Z"/><path class="cls-5" d="M140.53,49.66a.52.52,0,0,0,0,1A.52.52,0,0,0,140.53,49.66Z"/><path class="cls-5" d="M143.5,50a.58.58,0,0,0,0,1.16A.58.58,0,0,0,143.5,50Z"/><path class="cls-5" d="M145.37,47.74a.46.46,0,0,0,0,.92A.46.46,0,0,0,145.37,47.74Z"/><path class="cls-5" d="M148.09,48.44a.36.36,0,0,0,0,.72A.36.36,0,0,0,148.09,48.44Z"/><path class="cls-5" d="M147.89,50.74a.15.15,0,0,0,0,.29A.15.15,0,0,0,147.89,50.74Z"/><path class="cls-5" d="M137.85,51.9a.32.32,0,0,0,0,.63A.32.32,0,0,0,137.85,51.9Z"/><path class="cls-5" d="M136,50.27a.29.29,0,0,0,0,.57A.29.29,0,0,0,136,50.27Z"/><path class="cls-5" d="M140.63,52.45a.08.08,0,0,0,0,.17A.08.08,0,0,0,140.63,52.45Z"/><path class="cls-5" d="M142.79,51.91a.15.15,0,0,0,0,.3A.15.15,0,0,0,142.79,51.91Z"/><path class="cls-5" d="M97,48.87a.18.18,0,0,0,0,.36A.18.18,0,0,0,97,48.87Z"/><path class="cls-5" d="M98.8,48.56a.67.67,0,0,0,0,1.35A.67.67,0,0,0,98.8,48.56Z"/><path class="cls-5" d="M102.49,48.3a.34.34,0,0,0,0,.68A.34.34,0,0,0,102.49,48.3Z"/><path class="cls-5" d="M101.1,49.66a.52.52,0,0,0,0,1A.52.52,0,0,0,101.1,49.66Z"/><path class="cls-5" d="M104.06,50a.58.58,0,0,0,0,1.16A.58.58,0,0,0,104.06,50Z"/><path class="cls-5" d="M105.93,47.74a.46.46,0,0,0,0,.92A.46.46,0,0,0,105.93,47.74Z"/><path class="cls-5" d="M108.66,48.44a.36.36,0,0,0,0,.72A.36.36,0,0,0,108.66,48.44Z"/><path class="cls-5" d="M108.45,50.74a.15.15,0,0,0,0,.29A.15.15,0,0,0,108.45,50.74Z"/><path class="cls-5" d="M98.41,51.9a.32.32,0,0,0,0,.63A.32.32,0,0,0,98.41,51.9Z"/><path class="cls-5" d="M96.57,50.27a.29.29,0,0,0,0,.57A.29.29,0,0,0,96.57,50.27Z"/><path class="cls-5" d="M101.19,52.45a.08.08,0,0,0,0,.17A.08.08,0,0,0,101.19,52.45Z"/><path class="cls-5" d="M103.35,51.91a.15.15,0,0,0,0,.3A.15.15,0,0,0,103.35,51.91Z"/><path class="cls-6" d="M74.09,53C68.46,55.19,48.71,74.3,67.2,91.76"/><path class="cls-15" d="M76.76,54.45c.23,1.76-4.3,4.38-4.3,4.38s-4.8-2.89-4.31-7a7.69,7.69,0,0,1,5.37-3.16"/><path class="cls-7" d="M66.51,91.25c-2.18,2.34,1,5.87,2.05,6.4,1.63.81,3.82-.22,3.92-1.55s-1.86-3.33-1.86-3.33,1.51-.79,1.06-1.11C70.16,90.62,67.78,89.9,66.51,91.25Z"/><polygon class="cls-16" points="178.2 25.27 181.86 29.24 187.2 28.47 184.56 33.18 186.93 38.02 181.64 36.96 177.77 40.72 177.14 35.36 172.37 32.84 177.28 30.59 178.2 25.27"/><path class="cls-5" d="M182.16,36.8,191.62,63a2,2,0,0,1-3.78,1.37,2.05,2.05,0,0,1-.06-.2l-6.66-27a.54.54,0,0,1,1-.32Z"/><line class="cls-6" x1="173.03" y1="32.99" x2="177.1" y2="32.99"/><line class="cls-6" x1="178.2" y1="25.27" x2="179.19" y2="29.49"/><line class="cls-6" x1="187.2" y1="28.47" x2="183.18" y2="30.89"/><line class="cls-6" x1="186.93" y1="38.02" x2="183.18" y2="34.67"/><line class="cls-6" x1="177.77" y1="40.72" x2="179.19" y2="36.96"/></g></g></g></svg>