<svg xmlns="http://www.w3.org/2000/svg" viewBox="0 0 104.71 112.01"><defs><style>.cls-1{isolation:isolate;}.cls-2{fill:#f6e5ce;}.cls-2,.cls-7,.cls-9{stroke:#002036;}.cls-2,.cls-9{stroke-miterlimit:10;stroke-width:1.09px;}.cls-3{fill:#fffad2;mix-blend-mode:soft-light;}.cls-4{fill:#eadfd7;mix-blend-mode:multiply;}.cls-5{fill:#002036;}.cls-6{fill:#fff;}.cls-7,.cls-9{fill:none;stroke-linecap:round;}.cls-7{stroke-linejoin:round;stroke-width:1.63px;}.cls-8{fill:#f8c29e;}</style></defs><title>Ресурс 7</title><g class="cls-1"><g id="Слой_2" data-name="Слой 2"><g id="Capa_1" data-name="Capa 1"><path class="cls-2" d="M76.05.54c-7.29,0-13.86,6.62-23.7,6.62S35.94.54,28.65.54C14.24.54-1.38,21.11.74,37.61c2.36,18.4,22.84,73.86,37,73.86,7,0,6.94-13.86,10.51-28.73,1.63-6.8,4.89-7.61,6.52.54C57.8,98.55,60.46,111.46,67,111.46c14.14,0,35-59.07,37-73.86C106.14,21.11,90.09.54,76.05.54Z"/><path class="cls-3" d="M33,85.81c6.72.54,5.39-19.76,19.3-20.58,8-.47,11.52,3.5,12.7,9.66,1.25,6.52.78,12.61,7.79,12.19S99,56.45,98.48,37.29c-.24-8.76-3.95-18.61-8.07-26.32A15,15,0,0,0,76.59,3.21c-7.06.26-13.36,5-19.35,8.21C49.18,15.8,43.26,8.48,36,6.51c-6.94-1.88-13.35,0-17.94,5.71-5.55,6.93-5.64,17.19-3.63,25.46C15.89,43.72,26.32,85.27,33,85.81Z"/><path class="cls-3" d="M51.83,15.76c4.77.51,8.73-.66,13.28-2s9.27-2,13.53.2c8.71,4.55,12.83,15.8,14.48,24.9,1,5.47,1.69,11,.86,16.58a37.73,37.73,0,0,1-1.11,4.94c3.44-7.87,5.81-16.22,5.62-23.14-.24-8.76-3.95-18.61-8.07-26.32A15,15,0,0,0,76.59,3.21c-7.06.26-13.36,5-19.35,8.21C49.18,15.8,43.26,8.48,36,6.51A20.74,20.74,0,0,0,33.49,6C38.17,11.14,45.1,15,51.83,15.76Z"/><path class="cls-4" d="M35.05,33.77c-3.12,0-5.5-1.61-7.48,1.6a9.68,9.68,0,0,0-.72,8.38C29.6,49.79,39.34,45,36,39Z"/><path class="cls-4" d="M38.69,9.45a15.83,15.83,0,0,0,12.88,3C57,11.44,63,8.55,65.05,3.9c-3.76,1.64-7.83,3.26-12.7,3.26C43,7.16,36.63,1.22,29.78.6,32.77,3.53,35.41,6.79,38.69,9.45Z"/><path class="cls-4" d="M82.79,83.46c-2.66,4-9.84,9-15.38,7.47s-5.9-9.11-6.94-13.57c-.49-2.1-.81-5.8-3.08-6.8a8.31,8.31,0,0,0-7.28.41,18.54,18.54,0,0,0-8.52,12.5c-.7,4.6-1.54,11.13-7.48,11.25-3.12.06-4.72-3.36-6.55-5.48-3-3.42-16.19-26.8-26.41-49,3.75,20.56,23,71.18,36.55,71.18,7,0,6.94-13.86,10.51-28.73,1.63-6.8,4.89-7.61,6.52.54C57.8,98.55,60.46,111.46,67,111.46c10.21,0,24-30.84,31.52-53.53C93.48,68.23,88.62,74.79,82.79,83.46Z"/><circle class="cls-5" cx="34.35" cy="39.01" r="5.3"/><circle class="cls-6" cx="36.32" cy="40.57" r="1.56"/><circle class="cls-6" cx="34.76" cy="38" r="1.01"/><circle class="cls-5" cx="72.85" cy="39.01" r="5.3"/><circle class="cls-6" cx="70.88" cy="40.57" r="1.56"/><circle class="cls-6" cx="72.44" cy="38" r="1.01"/><path class="cls-7" d="M81.23,31.17c-3.08,0-8.38-1.48-10.78-3.35"/><path class="cls-7" d="M27.66,31.17c3.08,0,8.38-1.48,10.78-3.35"/><path class="cls-5" d="M63,5.42l-.89.3c-.28.1-.64.19-1,.36l-1.27.52c-.94.37-2,.88-3.24,1.32-.6.22-1.22.48-1.86.69l-2,.61c-.65.23-1.34.32-2,.49s-1.3.33-1.94.4L47,10.34a13.87,13.87,0,0,1-1.65.17l-3.41.09,3.4-.26a13.81,13.81,0,0,0,1.63-.25l1.81-.32c.63-.1,1.25-.33,1.9-.49S52,9,52.58,8.69l1.9-.7c.62-.23,1.22-.52,1.8-.77,1.17-.5,2.22-1,3.16-1.48l1.29-.6c.38-.19.72-.29,1-.41l.87-.34a.54.54,0,0,1,.4,1h0Z"/><path class="cls-5" d="M20.49,7.08a4.5,4.5,0,0,0-2.54,1.23,7.19,7.19,0,0,0-2,2.54.05.05,0,0,0,.09.05,8.66,8.66,0,0,1,2.17-2.24c.71-.54,1.75-.75,2.36-1.37A.12.12,0,0,0,20.49,7.08Z"/><path class="cls-5" d="M21.45,7.86a4,4,0,0,0-2.79,1.75c0,.05,0,.13.09.09a6.93,6.93,0,0,1,2.87-1.21C22,8.41,21.86,7.79,21.45,7.86Z"/><path class="cls-5" d="M20.4,80.15c-.42-.54-1-.91-1.43-1.42a4.66,4.66,0,0,1-1.16-2.22s-.07,0-.07,0c-.17,1.51,1,3.63,2.62,3.73C20.41,80.26,20.43,80.19,20.4,80.15Z"/><path class="cls-5" d="M22.44,79.33c-.8-.71-1.92-1-2.58-1.89a.06.06,0,0,0-.12,0,2.74,2.74,0,0,0,2.64,2A.07.07,0,0,0,22.44,79.33Z"/><path class="cls-5" d="M87.91,72.09c-.48,1-.65,2-1.14,3S85.59,76.85,85,77.73c0,0,0,0,0,0,1.56-1.05,3.25-3.66,3.14-5.6C88.2,72,88,71.94,87.91,72.09Z"/><path class="cls-5" d="M87.06,70.51a.11.11,0,0,0-.2,0,4.38,4.38,0,0,0-.49,1.66,10.72,10.72,0,0,1-.51,1.75c-.07.17.19.25.28.12C86.78,73.11,87.48,71.64,87.06,70.51Z"/><path class="cls-5" d="M78,3.45a4.14,4.14,0,0,0-3.88-.1c-.05,0,0,.11,0,.11.58,0,1.15-.06,1.73-.07A20.88,20.88,0,0,1,78,3.62C78.09,3.63,78.1,3.5,78,3.45Z"/><path class="cls-5" d="M79.42,5.1a3.13,3.13,0,0,0-3.09-.46c-.12,0-.1.24,0,.23a3.8,3.8,0,0,1,2.21.43c.21.11.82.6.93.1A.31.31,0,0,0,79.42,5.1Z"/><ellipse class="cls-8" cx="74.41" cy="50.2" rx="5.1" ry="2.63"/><ellipse class="cls-8" cx="33.75" cy="50.2" rx="5.1" ry="2.63"/><path class="cls-9" d="M40.83,55.52c3.55-5.32,5.57.45,8-.22,1.05-.28,2-1.45,3.08-1.82a3.74,3.74,0,0,1,3.45.45c1.09.55,1.63,1.16,2.94.86s2-1.54,3.3-1.95c2.73-.86,2.95.8,4.59,2.68"/><path class="cls-4" d="M101,20.56c-2.05-3.43-4.3-6.73-6.58-10a4.5,4.5,0,0,1-.63-.52c-1.31-.79-1.87-1.65-3.37-.93-2.12,1-1.63,2-1,3.54.54,1.25,1.23,3,.72,4.34s-1.93,1.9-1.55,3.65c.29,1.36,1.9,2,2.07,3.25.08.59-.48,1.5-.59,2.1-.16.87,0,1.62-.15,2.4-.46,2.76,4.73.32,4.73.32s.76,4.43,3.62,3.26,2.57-2.88,4.37-6l.15-.27c-.45-1.47-.94-3.06-1.5-4.64A4.5,4.5,0,0,1,101,20.56Z"/><path class="cls-4" d="M11.67,49.18c1.56,2.14,1,6.93,4.89,6.17.73-.14,1.05-.92,1.76-1.15,1-.32,1.33.17,2.23.42,1.48.4,2.4.6,2.35-1.46s-1.64-1.37-2.18-2.9c-.44-1.25.39-3.1-.58-4.17-1.71-1.9-1.81.11-2.82.78-1.58,1-1.51-1.33-3-2-1.18-.56-3-.5-3.08.87,0,.81,2,2.63-.18,2.54Z"/><path class="cls-5" d="M68.07,47.14a.18.18,0,0,0,0,.36A.18.18,0,0,0,68.07,47.14Z"/><path class="cls-5" d="M69.86,46.83a.67.67,0,0,0,0,1.34A.67.67,0,0,0,69.86,46.83Z"/><path class="cls-5" d="M73.54,46.56a.34.34,0,0,0,0,.68A.34.34,0,0,0,73.54,46.56Z"/><path class="cls-5" d="M72.15,47.92a.52.52,0,0,0,0,1A.52.52,0,0,0,72.15,47.92Z"/><path class="cls-5" d="M75.12,48.26a.58.58,0,0,0,0,1.16A.58.58,0,0,0,75.12,48.26Z"/><path class="cls-5" d="M77,46a.46.46,0,0,0,0,.92A.46.46,0,0,0,77,46Z"/><path class="cls-5" d="M79.71,46.7a.36.36,0,0,0,0,.72A.36.36,0,0,0,79.71,46.7Z"/><path class="cls-5" d="M79.5,49a.15.15,0,0,0,0,.29A.15.15,0,0,0,79.5,49Z"/><path class="cls-5" d="M69.46,50.16a.32.32,0,0,0,0,.64A.32.32,0,0,0,69.46,50.16Z"/><path class="cls-5" d="M67.62,48.54a.29.29,0,0,0,0,.57A.29.29,0,0,0,67.62,48.54Z"/><path class="cls-5" d="M72.25,50.71a.08.08,0,0,0,0,.17A.08.08,0,0,0,72.25,50.71Z"/><path class="cls-5" d="M74.41,50.18a.15.15,0,0,0,0,.3A.15.15,0,0,0,74.41,50.18Z"/><path class="cls-5" d="M28.63,47.14a.18.18,0,0,0,0,.36A.18.18,0,0,0,28.63,47.14Z"/><path class="cls-5" d="M30.42,46.83a.67.67,0,0,0,0,1.34A.67.67,0,0,0,30.42,46.83Z"/><path class="cls-5" d="M34.1,46.56a.34.34,0,0,0,0,.68A.34.34,0,0,0,34.1,46.56Z"/><path class="cls-5" d="M32.71,47.92a.52.52,0,0,0,0,1A.52.52,0,0,0,32.71,47.92Z"/><path class="cls-5" d="M35.68,48.26a.58.58,0,0,0,0,1.16A.58.58,0,0,0,35.68,48.26Z"/><path class="cls-5" d="M37.55,46a.46.46,0,0,0,0,.92A.46.46,0,0,0,37.55,46Z"/><path class="cls-5" d="M40.28,46.7a.36.36,0,0,0,0,.72A.36.36,0,0,0,40.28,46.7Z"/><path class="cls-5" d="M40.07,49a.15.15,0,0,0,0,.29A.15.15,0,0,0,40.07,49Z"/><path class="cls-5" d="M30,50.16a.32.32,0,0,0,0,.64A.32.32,0,0,0,30,50.16Z"/><path class="cls-5" d="M28.18,48.54a.29.29,0,0,0,0,.57A.29.29,0,0,0,28.18,48.54Z"/><path class="cls-5" d="M32.81,50.71a.08.08,0,0,0,0,.17A.08.08,0,0,0,32.81,50.71Z"/><path class="cls-5" d="M35,50.18a.15.15,0,0,0,0,.3A.15.15,0,0,0,35,50.18Z"/></g></g></g></svg>